0
SECTION
2
HEADER
9
$INSUNITS
70
1
9
$ACADVER
1
AC1014
9
$HANDSEED
5
FFFF
0
ENDSEC
0
SECTION
2
TABLES
0
TABLE
2
VPORT
5
8
100
AcDbSymbolTable
0
ENDTAB
0
TABLE
2
LTYPE
5
5
100
AcDbSymbolTable
0
LTYPE
5
14
100
AcDbSymbolTableRecord
100
AcDbLinetypeTableRecord
2
BYBLOCK
70
0
0
LTYPE
5
15
100
AcDbSymbolTableRecord
100
AcDbLinetypeTableRecord
2
BYLAYER
70
0
0
ENDTAB
0
TABLE
2
LAYER
5
2
100
AcDbSymbolTable
70
2
0
LAYER
5
50
100
AcDbSymbolTableRecord
100
AcDbLayerTableRecord
2
0
70
0
6
CONTINUOUS
0
ENDTAB
0
TABLE
2
STYLE
5
3
100
AcDbSymbolTable
70
1
0
STYLE
5
11
100
AcDbSymbolTableRecord
100
AcDbTextStyleTableRecord
2
STANDARD
70
0
0
ENDTAB
0
TABLE
2
VIEW
5
6
100
AcDbSymbolTable
70
0
0
ENDTAB
0
TABLE
2
UCS
5
7
100
AcDbSymbolTable
70
0
0
ENDTAB
0
TABLE
2
APPID
5
9
100
AcDbSymbolTable
70
2
0
APPID
5
12
100
AcDbSymbolTableRecord
100
AcDbRegAppTableRecord
2
ACAD
70
0
0
ENDTAB
0
TABLE
2
DIMSTYLE
5
A
100
AcDbSymbolTable
70
1
0
ENDTAB
0
TABLE
2
BLOCK_RECORD
5
1
100
AcDbSymbolTable
70
1
0
BLOCK_RECORD
5
1F
100
AcDbSymbolTableRecord
100
AcDbBlockTableRecord
2
*MODEL_SPACE
0
BLOCK_RECORD
5
1B
100
AcDbSymbolTableRecord
100
AcDbBlockTableRecord
2
*PAPER_SPACE
0
ENDTAB
0
ENDSEC
0
SECTION
2
BLOCKS
0
BLOCK
5
20
100
AcDbEntity
100
AcDbBlockBegin
2
*MODEL_SPACE
0
ENDBLK
5
21
100
AcDbEntity
100
AcDbBlockEnd
0
BLOCK
5
1C
100
AcDbEntity
100
AcDbBlockBegin
2
*PAPER_SPACE
0
ENDBLK
5
1D
100
AcDbEntity
100
AcDbBlockEnd
0
ENDSEC
0
SECTION
2
ENTITIES
0
LINE
5
100
100
AcDbEntity
8
0
100
AcDbLine
10
-0.50999999383655115
20
-0.079999999033184499
30
0
11
-0.15639677842202232
21
0.27260574798894283
31
0
0
LINE
5
101
100
AcDbEntity
8
0
100
AcDbLine
10
-0.15639677842202232
20
0.27260574798894283
30
0
11
-0.4354267380959731
21
0.27260574798894283
31
0
0
SPLINE
5
102
100
AcDbEntity
8
0
100
AcDbSpline
70
4
71
5
72
16
73
10
74
0
42
0.000000001
43
0.0000000001
44
0.0000000001
40
0
40
0
40
0
40
0
40
0
40
0
40
0.20000000000000001
40
0.40000000000000002
40
0.60000000000000009
40
0.80000000000000004
40
1
40
1
40
1
40
1
40
1
40
1
41
1
41
1
41
1
41
1
41
1
41
1
41
1
41
1
41
1
41
1
10
-0.50999999383655115
20
-0.079999999033184499
30
0
10
-0.51298375768540516
20
-0.064836181708735563
30
0
10
-0.51715506530849309
20
-0.034204452230418722
30
0
10
-0.51802826623216869
20
0.012654022112127768
30
0
10
-0.50995550466885109
20
0.076197259691011834
30
0
10
-0.48993623525340868
20
0.15323308041998507
30
0
10
-0.46951807593662298
20
0.20842941341371138
30
0
10
-0.45289343829447293
20
0.24345734232774691
30
0
10
-0.4413291743524842
20
0.26345002095735609
30
0
10
-0.4354267380959731
20
0.27260574798894283
30
0
0
LINE
5
103
100
AcDbEntity
8
0
100
AcDbLine
10
-0.30499999631401586
20
-0.41499999498464457
30
0
11
-0.30499999631401586
21
0.079999999033184499
31
0
0
LINE
5
104
100
AcDbEntity
8
0
100
AcDbLine
10
-0.30499999631401586
20
0.079999999033184499
30
0
11
-0.50499999389697714
21
-0.11999999854977675
31
0
0
SPLINE
5
105
100
AcDbEntity
8
0
100
AcDbSpline
70
4
71
5
72
16
73
10
74
0
42
0.000000001
43
0.0000000001
44
0.0000000001
40
0
40
0
40
0
40
0
40
0
40
0
40
0.20000000000000001
40
0.40000000000000002
40
0.60000000000000009
40
0.80000000000000004
40
1
40
1
40
1
40
1
40
1
40
1
41
1
41
1
41
1
41
1
41
1
41
1
41
1
41
1
41
1
41
1
10
-0.30499999631401586
20
-0.41499999498464457
30
0
10
-0.31915283515119769
20
-0.40489082438665758
30
0
10
-0.34601963483024145
20
-0.38411768465735313
30
0
10
-0.38200674393230089
20
-0.35129513508376126
30
0
10
-0.42225940122182209
20
-0.3047153309480114
30
0
10
-0.46191911515564166
20
-0.2437234171771539
30
0
10
-0.48535797870692121
20
-0.19409749633532924
30
0
10
-0.4975139359590382
20
-0.15695751127363541
30
0
10
-0.50294970037036568
20
-0.13230175970944524
30
0
10
-0.50499999389697714
20
-0.11999999854977675
30
0
0
LINE
5
106
100
AcDbEntity
8
0
100
AcDbLine
10
-0.26999999673699765
20
-0.159999998066369
30
0
11
-0.26999999673699765
21
-0.43999999468251455
31
0
0
LINE
5
107
100
AcDbEntity
8
0
100
AcDbLine
10
-0.26999999673699765
20
-0.159999998066369
30
0
11
0.079999999033184499
21
-0.50999999383655115
31
0
0
SPLINE
5
108
100
AcDbEntity
8
0
100
AcDbSpline
70
4
71
5
72
16
73
10
74
0
42
0.000000001
43
0.0000000001
44
0.0000000001
40
0
40
0
40
0
40
0
40
0
40
0
40
0.20000000000000001
40
0.40000000000000002
40
0.60000000000000009
40
0.80000000000000004
40
1
40
1
40
1
40
1
40
1
40
1
41
1
41
1
41
1
41
1
41
1
41
1
41
1
41
1
41
1
41
1
10
0.079999999033184499
20
-0.50999999383655115
30
0
10
0.065434491742729833
20
-0.51230441193403153
30
0
10
0.036260564100238375
20
-0.51577617679824717
30
0
10
-0.0076287528317911107
20
-0.517575343148585
30
0
10
-0.066197974179459315
20
-0.51380716256989278
30
0
10
-0.13825295709722055
20
-0.50019932280434642
30
0
10
-0.19354663457827365
20
-0.48192300770684199
30
0
10
-0.2327933357811163
20
-0.46315896493496855
30
0
10
-0.25779222135878449
20
-0.4481385116013234
30
0
10
-0.26999999673699765
20
-0.43999999468251455
30
0
0
LINE
5
109
100
AcDbEntity
8
0
100
AcDbLine
10
-0.079999999033184499
20
-0.30499999631401586
30
0
11
0.41500000259288999
21
-0.30499999631401586
31
0
0
LINE
5
110
100
AcDbEntity
8
0
100
AcDbLine
10
-0.079999999033184499
20
-0.30499999631401586
30
0
11
0.11930072974242199
21
-0.50430072508962243
31
0
0
SPLINE
5
111
100
AcDbEntity
8
0
100
AcDbSpline
70
4
71
5
72
16
73
10
74
0
42
0.000000001
43
0.0000000001
44
0.0000000001
40
0
40
0
40
0
40
0
40
0
40
0
40
0.20000000000000001
40
0.40000000000000002
40
0.60000000000000009
40
0.80000000000000004
40
1
40
1
40
1
40
1
40
1
40
1
41
1
41
1
41
1
41
1
41
1
41
1
41
1
41
1
41
1
41
1
10
0.11930072974242199
20
-0.50430072508962243
30
0
10
0.1396816285879488
20
-0.49855188960363062
30
0
10
0.17794718638466869
20
-0.4864053619168594
30
0
10
0.22786354015278895
20
-0.46624075135184267
30
0
10
0.28151896647969499
20
-0.43600153486624876
30
0
10
0.33427712123321596
20
-0.39448257066697945
30
0
10
0.36946027307911089
20
-0.35944178869012339
30
0
10
0.3931948153522159
20
-0.33247164463748496
30
0
10
0.40791542118625163
20
-0.31420499195185131
30
0
10
0.41500000259288999
20
-0.30499999631401586
30
0
0
LINE
5
112
100
AcDbEntity
8
0
100
AcDbLine
10
0.159999998066369
20
-0.26999999673699765
30
0
11
0.43999999468251472
21
-0.26999999673699765
31
0
0
LINE
5
113
100
AcDbEntity
8
0
100
AcDbLine
10
0.159999998066369
20
-0.26999999673699765
30
0
11
0.50999999383655115
21
0.079999999033184499
31
0
0
SPLINE
5
114
100
AcDbEntity
8
0
100
AcDbSpline
70
4
71
5
72
16
73
10
74
0
42
0.000000001
43
0.0000000001
44
0.0000000001
40
0
40
0
40
0
40
0
40
0
40
0
40
0.20000000000000001
40
0.40000000000000002
40
0.60000000000000009
40
0.80000000000000004
40
1
40
1
40
1
40
1
40
1
40
1
41
1
41
1
41
1
41
1
41
1
41
1
41
1
41
1
41
1
41
1
10
0.50999999383655115
20
0.079999999033184499
30
0
10
0.51411031162674303
20
0.063558727872417314
30
0
10
0.52026282409795344
20
0.031128495308727938
30
0
10
0.523292853659862
20
-0.016160897327245613
30
0
10
0.51668787258570492
20
-0.076661303233011277
30
0
10
0.49692087630750742
20
-0.14793883343335582
30
0
10
0.47589791428727318
20
-0.20059654375192187
30
0
10
0.45849251454365658
20
-0.23677003522001383
30
0
10
0.44626771949254374
20
-0.25920388693474411
30
0
10
0.43999999468251472
20
-0.26999999673699765
30
0
0
LINE
5
115
100
AcDbEntity
8
0
100
AcDbLine
10
0.30499999631401586
20
0.41499999498464457
30
0
11
0.30499999631401586
21
-0.079999999033184499
31
0
0
LINE
5
116
100
AcDbEntity
8
0
100
AcDbLine
10
0.30499999631401586
20
-0.079999999033184499
30
0
11
0.50099999394531769
21
0.1159999985981173
31
0
0
SPLINE
5
117
100
AcDbEntity
8
0
100
AcDbSpline
70
4
71
5
72
16
73
10
74
0
42
0.000000001
43
0.0000000001
44
0.0000000001
40
0
40
0
40
0
40
0
40
0
40
0
40
0.20000000000000001
40
0.40000000000000002
40
0.60000000000000009
40
0.80000000000000004
40
1
40
1
40
1
40
1
40
1
40
1
41
1
41
1
41
1
41
1
41
1
41
1
41
1
41
1
41
1
41
1
10
0.30499999631401586
20
0.41499999498464457
30
0
10
0.31529220326024376
20
0.40882467081690788
30
0
10
0.33555896225841281
20
0.39507888624783638
30
0
10
0.36500661455486549
20
0.37027828684304476
30
0
10
0.40230012025596051
20
0.32975928740044858
30
0
10
0.44441132195308686
20
0.26913488700885241
30
0
10
0.47247690157850303
20
0.21322654497022628
30
0
10
0.48884528628115048
20
0.16661374981792673
30
0
10
0.49735003533352912
20
0.13325255012857062
30
0
10
0.50099999394531769
20
0.1159999985981173
30
0
0
LINE
5
118
100
AcDbEntity
8
0
100
AcDbLine
10
-0.41499999498464457
20
0.30499999631401586
30
0
11
0.079999999033184499
21
0.30499999631401586
31
0
0
LINE
5
119
100
AcDbEntity
8
0
100
AcDbLine
10
0.079999999033184499
20
0.30499999631401586
30
0
11
-0.11869502790532592
21
0.50397599108148117
31
0
0
SPLINE
5
120
100
AcDbEntity
8
0
100
AcDbSpline
70
4
71
5
72
16
73
10
74
0
42
0.000000001
43
0.0000000001
44
0.0000000001
40
0
40
0
40
0
40
0
40
0
40
0
40
0.20000000000000001
40
0.40000000000000002
40
0.60000000000000009
40
0.80000000000000004
40
1
40
1
40
1
40
1
40
1
40
1
41
1
41
1
41
1
41
1
41
1
41
1
41
1
41
1
41
1
41
1
10
-0.11869502790532592
20
0.50397599108148117
30
0
10
-0.13314830530981756
20
0.50002035726551508
30
0
10
-0.16149246171581269
20
0.491372430093938
30
0
10
-0.20232283166220366
20
0.47619213789909226
30
0
10
-0.25369466954745928
20
0.45178861230541451
30
0
10
-0.31335825807798812
20
0.41414888548172107
30
0
10
-0.35716897337497028
20
0.37683408844279087
30
0
10
-0.38728253167478099
20
0.34335391252284891
30
0
10
-0.40598920308627989
20
0.31824914533040516
30
0
10
-0.41499999498464457
20
0.30499999631401586
30
0
0
LINE
5
121
100
AcDbEntity
8
0
100
AcDbLine
10
0.26999999673699765
20
0.43999999468251472
30
0
11
0.26999999673699765
21
0.159999998066369
31
0
0
LINE
5
122
100
AcDbEntity
8
0
100
AcDbLine
10
0.26999999673699765
20
0.159999998066369
30
0
11
-0.079999999033184499
21
0.50999999383655115
31
0
0
SPLINE
5
123
100
AcDbEntity
8
0
100
AcDbSpline
70
4
71
5
72
16
73
10
74
0
42
0.000000001
43
0.0000000001
44
0.0000000001
40
0
40
0
40
0
40
0
40
0
40
0
40
0.20000000000000001
40
0.40000000000000002
40
0.60000000000000009
40
0.80000000000000004
40
1
40
1
40
1
40
1
40
1
40
1
41
1
41
1
41
1
41
1
41
1
41
1
41
1
41
1
41
1
41
1
10
-0.079999999033184499
20
0.50999999383655115
30
0
10
-0.063523431439463485
20
0.51208194070347202
30
0
10
-0.031234207741653298
20
0.51519104629115997
30
0
10
0.015209629028462519
20
0.51669283470376592
30
0
10
0.073655272773889752
20
0.51293904009771818
30
0
10
0.14250886701170398
20
0.49970388186289855
30
0
10
0.19502397383444078
20
0.48175102701021044
30
0
10
0.23306212131416856
20
0.46312767494993579
30
0
10
0.25779222135878133
20
0.44813851160132562
30
0
10
0.26999999673699765
20
0.43999999468251472
30
0
0
ENDSEC
0
SECTION
2
OBJECTS
0
DICTIONARY
5
C
100
AcDbDictionary
3
ACAD_GROUP
350
D
3
ACAD_MLINESTYLE
350
17
0
DICTIONARY
5
D
100
AcDbDictionary
0
DICTIONARY
5
1A
330
C
100
AcDbDictionary
0
DICTIONARY
5
17
100
AcDbDictionary
0
ENDSEC
0
EOF
