0
SECTION
2
HEADER
9
$INSUNITS
70
1
9
$ACADVER
1
AC1014
9
$HANDSEED
5
FFFF
0
ENDSEC
0
SECTION
2
TABLES
0
TABLE
2
VPORT
5
8
100
AcDbSymbolTable
0
ENDTAB
0
TABLE
2
LTYPE
5
5
100
AcDbSymbolTable
0
LTYPE
5
14
100
AcDbSymbolTableRecord
100
AcDbLinetypeTableRecord
2
BYBLOCK
70
0
0
LTYPE
5
15
100
AcDbSymbolTableRecord
100
AcDbLinetypeTableRecord
2
BYLAYER
70
0
0
ENDTAB
0
TABLE
2
LAYER
5
2
100
AcDbSymbolTable
70
2
0
LAYER
5
50
100
AcDbSymbolTableRecord
100
AcDbLayerTableRecord
2
0
70
0
6
CONTINUOUS
0
ENDTAB
0
TABLE
2
STYLE
5
3
100
AcDbSymbolTable
70
1
0
STYLE
5
11
100
AcDbSymbolTableRecord
100
AcDbTextStyleTableRecord
2
STANDARD
70
0
0
ENDTAB
0
TABLE
2
VIEW
5
6
100
AcDbSymbolTable
70
0
0
ENDTAB
0
TABLE
2
UCS
5
7
100
AcDbSymbolTable
70
0
0
ENDTAB
0
TABLE
2
APPID
5
9
100
AcDbSymbolTable
70
2
0
APPID
5
12
100
AcDbSymbolTableRecord
100
AcDbRegAppTableRecord
2
ACAD
70
0
0
ENDTAB
0
TABLE
2
DIMSTYLE
5
A
100
AcDbSymbolTable
70
1
0
ENDTAB
0
TABLE
2
BLOCK_RECORD
5
1
100
AcDbSymbolTable
70
1
0
BLOCK_RECORD
5
1F
100
AcDbSymbolTableRecord
100
AcDbBlockTableRecord
2
*MODEL_SPACE
0
BLOCK_RECORD
5
1B
100
AcDbSymbolTableRecord
100
AcDbBlockTableRecord
2
*PAPER_SPACE
0
ENDTAB
0
ENDSEC
0
SECTION
2
BLOCKS
0
BLOCK
5
20
100
AcDbEntity
100
AcDbBlockBegin
2
*MODEL_SPACE
0
ENDBLK
5
21
100
AcDbEntity
100
AcDbBlockEnd
0
BLOCK
5
1C
100
AcDbEntity
100
AcDbBlockBegin
2
*PAPER_SPACE
0
ENDBLK
5
1D
100
AcDbEntity
100
AcDbBlockEnd
0
ENDSEC
0
SECTION
2
ENTITIES
0
LINE
5
100
100
AcDbEntity
8
0
100
AcDbLine
10
0.83200000051233014
20
0.27400000171193217
30
0
11
0.83200000051233014
21
0.54400000339887267
31
0
0
LINE
5
101
100
AcDbEntity
8
0
100
AcDbLine
10
0.79000000024991712
20
0.54400000339887267
30
0
11
0.83200000051233014
21
0.54400000339887267
31
0
0
LINE
5
102
100
AcDbEntity
8
0
100
AcDbLine
10
0.79000000024991712
20
0.54400000339887267
30
0
11
0.79000000024991712
21
-0.62800000392369859
31
0
0
LINE
5
103
100
AcDbEntity
8
0
100
AcDbLine
10
0.83200000051233014
20
-0.62800000392369859
30
0
11
0.79000000024991712
21
-0.62800000392369859
31
0
0
LINE
5
104
100
AcDbEntity
8
0
100
AcDbLine
10
0.83200000051233014
20
-0.62800000392369859
30
0
11
0.83200000051233014
21
-0.54100000338012888
31
0
0
LINE
5
105
100
AcDbEntity
8
0
100
AcDbLine
10
0.83200000051233014
20
-0.54100000338012888
30
0
11
0.96600000134955244
21
-0.40600000253665869
31
0
0
LWPOLYLINE
5
106
100
AcDbEntity
8
0
100
AcDbPolyline
90
3
70
1
43
0.0
10
0.8110000050670696
20
-0.41829916725170924
10
0.8110000050670696
20
-0.28500000178065943
10
0.87500000546693679
20
-0.37300000233047703
0
LINE
5
107
100
AcDbEntity
8
0
100
AcDbLine
10
0.83200000051233014
20
-0.13900000086846195
30
0
11
0.83200000051233014
21
-0.14900000093094123
31
0
0
LINE
5
108
100
AcDbEntity
8
0
100
AcDbLine
10
0.83200000051233014
20
-0.14900000093094123
30
0
11
0.96789212220371712
21
-0.34140444783175428
31
0
0
LINE
5
109
100
AcDbEntity
8
0
100
AcDbLine
10
0.83200000051233014
20
-0.13900000086846195
30
0
11
0.98200000144951927
21
0.037000000231173329
31
0
0
LINE
5
110
100
AcDbEntity
8
0
100
AcDbLine
10
0.98200000144951927
20
0.037000000231173329
30
0
11
1.0110000016307092
21
-0.080000000499834217
31
0
0
LINE
5
111
100
AcDbEntity
8
0
100
AcDbLine
10
1.0320000017619158
20
-0.11000000068727205
30
0
11
1.1630000025803942
21
-0.21000000131206484
31
0
0
LINE
5
112
100
AcDbEntity
8
0
100
AcDbLine
10
1.2150000029052865
20
-0.14800000092469331
30
0
11
1.0803388186746532
21
-0.045205203802072526
31
0
0
LINE
5
113
100
AcDbEntity
8
0
100
AcDbLine
10
1.0803388186746532
20
-0.045205203802072526
30
0
11
1.0380000017994033
21
0.11800000073725547
31
0
0
LINE
5
114
100
AcDbEntity
8
0
100
AcDbLine
10
1.0380000017994033
20
0.11800000073725547
30
0
11
0.83200000051233014
21
0.27400000171193217
31
0
0
SPLINE
5
115
100
AcDbEntity
8
0
100
AcDbSpline
70
4
71
5
72
21
73
15
74
0
42
0.000000001
43
0.0000000001
44
0.0000000001
40
0
40
0
40
0
40
0
40
0
40
0
40
0.10000000000000001
40
0.20000000000000001
40
0.30000000000000004
40
0.40000000000000002
40
0.5
40
0.59999999999999998
40
0.69999999999999996
40
0.79999999999999993
40
0.89999999999999991
40
1
40
1
40
1
40
1
40
1
40
1
41
1
41
1
41
1
41
1
41
1
41
1
41
1
41
1
41
1
41
1
41
1
41
1
41
1
41
1
41
1
10
1.1630000025803942
20
-0.21000000131206484
30
0
10
1.1663118205039611
20
-0.21097406509104619
30
0
10
1.1726577195540642
20
-0.21249416726989398
30
0
10
1.1813429243087401
20
-0.21349130029282792
30
0
10
1.1912766631667486
20
-0.21249455325399516
30
0
10
1.2010441981290529
20
-0.20861665302700455
30
0
10
1.2083913850908088
20
-0.2032847137612096
30
0
10
1.2135936246584258
20
-0.19737247137461988
30
0
10
1.2174097370454395
20
-0.19022043089790416
30
0
10
1.2202867792787568
20
-0.18092860873787811
30
0
10
1.2216028627947335
20
-0.17015321778656795
30
0
10
1.2206951358845681
20
-0.16105406642811257
30
0
10
1.218492699206762
20
-0.15440522008757079
30
0
10
1.2162871774352313
20
-0.15011176077215524
30
0
10
1.2150000029052865
20
-0.14800000092469331
30
0
0
SPLINE
5
116
100
AcDbEntity
8
0
100
AcDbSpline
70
4
71
5
72
16
73
10
74
0
42
0.000000001
43
0.0000000001
44
0.0000000001
40
0
40
0
40
0
40
0
40
0
40
0
40
0.20000000000000001
40
0.40000000000000002
40
0.60000000000000009
40
0.80000000000000004
40
1
40
1
40
1
40
1
40
1
40
1
41
1
41
1
41
1
41
1
41
1
41
1
41
1
41
1
41
1
41
1
10
1.0110000016307092
20
-0.080000000499834217
30
0
10
1.0116662226125634
20
-0.08131953627286892
30
0
10
1.0130032487246594
20
-0.083964209535170475
30
0
10
1.0150225718701102
20
-0.087947970928419911
30
0
10
1.0177767664571495
20
-0.093255185253862186
30
0
10
1.0215569405279341
20
-0.099648243776716522
30
0
10
1.0251421620275476
20
-0.10429734800727104
30
0
10
1.0283393471625812
20
-0.1073483323099121
30
0
10
1.030735608766036
20
-0.1091541716437659
30
0
10
1.0320000017619158
20
-0.11000000068727205
30
0
0
SPLINE
5
117
100
AcDbEntity
8
0
100
AcDbSpline
70
4
71
5
72
16
73
10
74
0
42
0.000000001
43
0.0000000001
44
0.0000000001
40
0
40
0
40
0
40
0
40
0
40
0
40
0.20000000000000001
40
0.40000000000000002
40
0.60000000000000009
40
0.80000000000000004
40
1
40
1
40
1
40
1
40
1
40
1
41
1
41
1
41
1
41
1
41
1
41
1
41
1
41
1
41
1
41
1
10
0.96789212220371712
20
-0.34140444783175428
30
0
10
0.97024377857412869
20
-0.34473406795702727
30
0
10
0.97425097958269624
20
-0.35126698147945146
30
0
10
0.97817531280735681
20
-0.36068762558114359
30
0
10
0.97980031691948055
20
-0.37252028898044492
30
0
10
0.97775757355130655
20
-0.38597084384576552
30
0
10
0.9740183389251762
20
-0.3952905267139043
30
0
10
0.97033962967644771
20
-0.40114937973105874
30
0
10
0.96750951655035267
20
-0.40447922229704664
30
0
10
0.96600000134955244
20
-0.40600000253665869
30
0
0
CIRCLE
5
118
100
AcDbEntity
8
0
100
AcDbCircle
10
1.0299999966161457
20
0.29999999637444186
30
0
40
0.1204159443326729
210
0
220
0
230
1
0
ENDSEC
0
SECTION
2
OBJECTS
0
DICTIONARY
5
C
100
AcDbDictionary
3
ACAD_GROUP
350
D
3
ACAD_MLINESTYLE
350
17
0
DICTIONARY
5
D
100
AcDbDictionary
0
DICTIONARY
5
1A
330
C
100
AcDbDictionary
0
DICTIONARY
5
17
100
AcDbDictionary
0
ENDSEC
0
EOF
