0
SECTION
2
HEADER
9
$INSUNITS
70
1
9
$ACADVER
1
AC1014
9
$HANDSEED
5
FFFF
0
ENDSEC
0
SECTION
2
TABLES
0
TABLE
2
VPORT
5
8
100
AcDbSymbolTable
0
ENDTAB
0
TABLE
2
LTYPE
5
5
100
AcDbSymbolTable
0
LTYPE
5
14
100
AcDbSymbolTableRecord
100
AcDbLinetypeTableRecord
2
BYBLOCK
70
0
0
LTYPE
5
15
100
AcDbSymbolTableRecord
100
AcDbLinetypeTableRecord
2
BYLAYER
70
0
0
ENDTAB
0
TABLE
2
LAYER
5
2
100
AcDbSymbolTable
70
2
0
LAYER
5
50
100
AcDbSymbolTableRecord
100
AcDbLayerTableRecord
2
0
70
0
6
CONTINUOUS
0
ENDTAB
0
TABLE
2
STYLE
5
3
100
AcDbSymbolTable
70
1
0
STYLE
5
11
100
AcDbSymbolTableRecord
100
AcDbTextStyleTableRecord
2
STANDARD
70
0
0
ENDTAB
0
TABLE
2
VIEW
5
6
100
AcDbSymbolTable
70
0
0
ENDTAB
0
TABLE
2
UCS
5
7
100
AcDbSymbolTable
70
0
0
ENDTAB
0
TABLE
2
APPID
5
9
100
AcDbSymbolTable
70
2
0
APPID
5
12
100
AcDbSymbolTableRecord
100
AcDbRegAppTableRecord
2
ACAD
70
0
0
ENDTAB
0
TABLE
2
DIMSTYLE
5
A
100
AcDbSymbolTable
70
1
0
ENDTAB
0
TABLE
2
BLOCK_RECORD
5
1
100
AcDbSymbolTable
70
1
0
BLOCK_RECORD
5
1F
100
AcDbSymbolTableRecord
100
AcDbBlockTableRecord
2
*MODEL_SPACE
0
BLOCK_RECORD
5
1B
100
AcDbSymbolTableRecord
100
AcDbBlockTableRecord
2
*PAPER_SPACE
0
ENDTAB
0
ENDSEC
0
SECTION
2
BLOCKS
0
BLOCK
5
20
100
AcDbEntity
100
AcDbBlockBegin
2
*MODEL_SPACE
0
ENDBLK
5
21
100
AcDbEntity
100
AcDbBlockEnd
0
BLOCK
5
1C
100
AcDbEntity
100
AcDbBlockBegin
2
*PAPER_SPACE
0
ENDBLK
5
1D
100
AcDbEntity
100
AcDbBlockEnd
0
ENDSEC
0
SECTION
2
ENTITIES
0
LINE
5
100
100
AcDbEntity
8
0
100
AcDbLine
10
-0.27100000013120651
20
-0.62800000392369859
30
0
11
-0.27100000013120651
21
0.54499999341356942
31
0
0
LINE
5
101
100
AcDbEntity
8
0
100
AcDbLine
10
-0.27100000013120651
20
0.54499999341356942
30
0
11
-0.31303714384078429
21
0.54499999341356942
31
0
0
LINE
5
102
100
AcDbEntity
8
0
100
AcDbLine
10
-0.31303714384078429
20
0.54499999341356942
30
0
11
-0.31303714384078429
21
0.32999999601188607
31
0
0
LINE
5
103
100
AcDbEntity
8
0
100
AcDbLine
10
-0.27100000013120651
20
-0.62800000392369859
30
0
11
-0.31303714384078429
21
-0.62800000392369859
31
0
0
LINE
5
104
100
AcDbEntity
8
0
100
AcDbLine
10
-0.31303714384078429
20
-0.62800000392369859
30
0
11
-0.31303714384078429
21
-0.55999999323229144
31
0
0
LINE
5
105
100
AcDbEntity
8
0
100
AcDbLine
10
-0.31303714384078429
20
-0.4239083047353433
30
0
11
-0.31303714384078429
21
-0.22200000138703996
31
0
0
LINE
5
106
100
AcDbEntity
8
0
100
AcDbLine
10
-0.31303714384078429
20
-0.22200000138703996
30
0
11
-0.37900000080598273
21
-0.13100000081847854
31
0
0
LINE
5
107
100
AcDbEntity
8
0
100
AcDbLine
10
-0.31303714384078429
20
0.20132525972635237
30
0
11
-0.31303714384078429
21
0.10700000066852827
31
0
0
LINE
5
108
100
AcDbEntity
8
0
100
AcDbLine
10
-0.31303714384078429
20
0.10700000066852827
30
0
11
-0.52700000173067607
21
-0.11200000069976791
31
0
0
LINE
5
109
100
AcDbEntity
8
0
100
AcDbLine
10
-0.52700000173067607
20
-0.11200000069976791
30
0
11
-0.61700000229298957
21
0.022000000137454411
31
0
0
LINE
5
110
100
AcDbEntity
8
0
100
AcDbLine
10
-0.6990000028053196
20
-0.021000000131206481
30
0
11
-0.57499999607231211
21
-0.23499999715997946
31
0
0
LINE
5
111
100
AcDbEntity
8
0
100
AcDbLine
10
-0.31303714384078429
20
0.20132525972635237
30
0
11
-0.37499999848935078
21
0.25499999691827557
31
0
0
LINE
5
112
100
AcDbEntity
8
0
100
AcDbLine
10
-0.37499999848935078
20
0.25499999691827557
30
0
11
-0.52500000171818018
21
0.14600000091219745
31
0
0
LINE
5
113
100
AcDbEntity
8
0
100
AcDbLine
10
-0.31303714384078429
20
0.32999999601188607
30
0
11
-0.34200000057480939
21
0.34900000218052679
31
0
0
LINE
5
114
100
AcDbEntity
8
0
100
AcDbLine
10
-0.57000000199933698
20
0.21000000131206484
30
0
11
-0.38600000084971819
21
0.346000002161783
31
0
0
SPLINE
5
115
100
AcDbEntity
8
0
100
AcDbSpline
70
4
71
5
72
16
73
10
74
0
42
0.000000001
43
0.0000000001
44
0.0000000001
40
0
40
0
40
0
40
0
40
0
40
0
40
0.20000000000000001
40
0.40000000000000002
40
0.60000000000000009
40
0.80000000000000004
40
1
40
1
40
1
40
1
40
1
40
1
41
1
41
1
41
1
41
1
41
1
41
1
41
1
41
1
41
1
41
1
10
-0.38600000084971819
20
0.346000002161783
30
0
10
-0.3847253675411858
20
0.34694212243330697
30
0
10
-0.38198498646845042
20
0.3486939526724116
30
0
10
-0.37730163432939151
20
0.35092472213107484
30
0
10
-0.37011036659658336
20
0.3531260853344223
30
0
10
-0.36035916094131121
20
0.3543934343523597
30
0
10
-0.35260813414011349
20
0.35375704167697214
30
0
10
-0.34713140344735954
20
0.35196569736928324
30
0
10
-0.34367754768100195
20
0.35010049463741899
30
0
10
-0.34200000057480939
20
0.34900000218052679
30
0
0
SPLINE
5
116
100
AcDbEntity
8
0
100
AcDbSpline
70
4
71
5
72
21
73
15
74
0
42
0.000000001
43
0.0000000001
44
0.0000000001
40
0
40
0
40
0
40
0
40
0
40
0
40
0.10000000000000001
40
0.20000000000000001
40
0.30000000000000004
40
0.40000000000000002
40
0.5
40
0.59999999999999998
40
0.69999999999999996
40
0.79999999999999993
40
0.89999999999999991
40
1
40
1
40
1
40
1
40
1
40
1
41
1
41
1
41
1
41
1
41
1
41
1
41
1
41
1
41
1
41
1
41
1
41
1
41
1
41
1
41
1
10
-0.57000000199933698
20
0.21000000131206484
30
0
10
-0.5720677093135782
20
0.2079322960069214
30
0
10
-0.57582615911571011
20
0.20379637332678374
30
0
10
-0.58033308772707892
20
0.19759012784279864
30
0
10
-0.5840776096581447
20
0.18926268259044773
30
0
10
-0.58497547157055019
20
0.1785772110125339
30
0
10
-0.58211794838013786
20
0.16772760075355286
30
0
10
-0.57570323672512624
20
0.15713272506376916
30
0
10
-0.56617930042438547
20
0.14839594361904115
30
0
10
-0.55467155436716475
20
0.14298649856324133
30
0
10
-0.54279679477123099
20
0.14093062704208881
30
0
10
-0.53431810585522932
20
0.1417221150483437
30
0
10
-0.52913286658920822
20
0.14344997461287992
30
0
10
-0.52627737757454851
20
0.14507177451056197
30
0
10
-0.52500000171818018
20
0.14600000091219745
30
0
0
SPLINE
5
117
100
AcDbEntity
8
0
100
AcDbSpline
70
4
71
5
72
21
73
15
74
0
42
0.000000001
43
0.0000000001
44
0.0000000001
40
0
40
0
40
0
40
0
40
0
40
0
40
0.10000000000000001
40
0.20000000000000001
40
0.30000000000000004
40
0.40000000000000002
40
0.5
40
0.59999999999999998
40
0.69999999999999996
40
0.79999999999999993
40
0.89999999999999991
40
1
40
1
40
1
40
1
40
1
40
1
41
1
41
1
41
1
41
1
41
1
41
1
41
1
41
1
41
1
41
1
41
1
41
1
41
1
41
1
41
1
10
-0.61700000229298957
20
0.022000000137454411
30
0
10
-0.61859510064474543
20
0.023595097047943017
30
0
10
-0.62206996001574677
20
0.026477451302056306
30
0
10
-0.62813618871173316
20
0.029877527482813034
30
0
10
-0.63774940104541677
20
0.032548905557679912
30
0
10
-0.65128191940585045
20
0.032714835333582805
30
0
10
-0.66501933640894395
20
0.029678082205686861
30
0
10
-0.67762751385846909
20
0.023579175870161732
30
0
10
-0.68797892497972302
20
0.014872903206297533
30
0
10
-0.69548105685026607
20
0.0046099448529378284
30
0
10
-0.69993646129632103
20
-0.0058056766244059758
30
0
10
-0.70105599243668582
20
-0.013128405617544256
30
0
10
-0.70054786018388671
20
-0.017542613724221591
30
0
10
-0.6996149758739254
20
-0.019938675714201243
30
0
10
-0.6990000028053196
20
-0.021000000131206481
30
0
0
LINE
5
118
100
AcDbEntity
8
0
100
AcDbLine
10
-0.31303714384078429
20
-0.4239083047353433
30
0
11
-0.38866257098461499
21
-0.49661264861848886
31
0
0
SPLINE
5
119
100
AcDbEntity
8
0
100
AcDbSpline
70
4
71
5
72
26
73
20
74
0
42
0.000000001
43
0.0000000001
44
0.0000000001
40
0
40
0
40
0
40
0
40
0
40
0
40
0.066666666666666666
40
0.13333333333333333
40
0.20000000000000001
40
0.26666666666666666
40
0.33333333333333331
40
0.39999999999999997
40
0.46666666666666662
40
0.53333333333333333
40
0.59999999999999998
40
0.66666666666666663
40
0.73333333333333328
40
0.79999999999999993
40
0.86666666666666659
40
0.93333333333333324
40
1
40
1
40
1
40
1
40
1
40
1
41
1
41
1
41
1
41
1
41
1
41
1
41
1
41
1
41
1
41
1
41
1
41
1
41
1
41
1
41
1
41
1
41
1
41
1
41
1
41
1
10
-0.38866257098461499
20
-0.49661264861848886
30
0
10
-0.39044849320560998
20
-0.49965533092092473
30
0
10
-0.39364915508910353
20
-0.50557955690928902
30
0
10
-0.39733659994454607
20
-0.51398247208095549
30
0
10
-0.40007636014941067
20
-0.52425061260145478
30
0
10
-0.4001698579578386
20
-0.53568294626125046
30
0
10
-0.39733590856437834
20
-0.54588075827021942
30
0
10
-0.39202500782526378
20
-0.55495338191594379
30
0
10
-0.38469691858700944
20
-0.56289782954144252
30
0
10
-0.37575474177075102
20
-0.56950818705643735
30
0
10
-0.36560503365460151
20
-0.57443151891929323
30
0
10
-0.35473553107570227
20
-0.5773143438218753
30
0
10
-0.34391090001180319
20
-0.57795454314580708
30
0
10
-0.33407030585601788
20
-0.57639989362235988
30
0
10
-0.32702576512169185
20
-0.57323791215382547
30
0
10
-0.32233887280448886
20
-0.56910173651395579
30
0
10
-0.31919926998301784
20
-0.56545427593123399
30
0
10
-0.31639902518994961
20
-0.56271101198075979
30
0
10
-0.31421126201071264
20
-0.56090058780703766
30
0
10
-0.31303714384078429
20
-0.55999999323229144
30
0
0
SPLINE
5
120
100
AcDbEntity
8
0
100
AcDbSpline
70
4
71
5
72
21
73
15
74
0
42
0.000000001
43
0.0000000001
44
0.0000000001
40
0
40
0
40
0
40
0
40
0
40
0
40
0.10000000000000001
40
0.20000000000000001
40
0.30000000000000004
40
0.40000000000000002
40
0.5
40
0.59999999999999998
40
0.69999999999999996
40
0.79999999999999993
40
0.89999999999999991
40
1
40
1
40
1
40
1
40
1
40
1
41
1
41
1
41
1
41
1
41
1
41
1
41
1
41
1
41
1
41
1
41
1
41
1
41
1
41
1
41
1
10
-0.57499999607231211
20
-0.23499999715997946
30
0
10
-0.57334372669441303
20
-0.2367568153267324
30
0
10
-0.57001374079341893
20
-0.24011590409196118
30
0
10
-0.5649664214473209
20
-0.24469090287021789
30
0
10
-0.5581302510056686
20
-0.24984830521441292
30
0
10
-0.54939576027647941
20
-0.2546184282780885
30
0
10
-0.54045551311057693
20
-0.25756595190895182
30
0
10
-0.53129339670374942
20
-0.25854814818931104
30
0
10
-0.52190187020768686
20
-0.25749821995832223
30
0
10
-0.51229145526485476
20
-0.25450936838109545
30
0
10
-0.50247927576985452
20
-0.24973327765827086
30
0
10
-0.49448166665657906
20
-0.24460260592113867
30
0
10
-0.48840561710603492
20
-0.24006506797087343
30
0
10
-0.4843208866914861
20
-0.23673859712997758
30
0
10
-0.48227001344843379
20
-0.23499999715997946
30
0
0
LINE
5
121
100
AcDbEntity
8
0
100
AcDbLine
10
-0.48227001344843379
20
-0.23499999715997946
30
0
11
-0.37900000080598273
21
-0.13100000081847854
31
0
0
ENDSEC
0
SECTION
2
OBJECTS
0
DICTIONARY
5
C
100
AcDbDictionary
3
ACAD_GROUP
350
D
3
ACAD_MLINESTYLE
350
17
0
DICTIONARY
5
D
100
AcDbDictionary
0
DICTIONARY
5
1A
330
C
100
AcDbDictionary
0
DICTIONARY
5
17
100
AcDbDictionary
0
ENDSEC
0
EOF
