0
SECTION
2
HEADER
9
$INSUNITS
70
1
9
$ACADVER
1
AC1014
9
$HANDSEED
5
FFFF
0
ENDSEC
0
SECTION
2
TABLES
0
TABLE
2
VPORT
5
8
100
AcDbSymbolTable
0
ENDTAB
0
TABLE
2
LTYPE
5
5
100
AcDbSymbolTable
0
LTYPE
5
14
100
AcDbSymbolTableRecord
100
AcDbLinetypeTableRecord
2
BYBLOCK
70
0
0
LTYPE
5
15
100
AcDbSymbolTableRecord
100
AcDbLinetypeTableRecord
2
BYLAYER
70
0
0
ENDTAB
0
TABLE
2
LAYER
5
2
100
AcDbSymbolTable
70
2
0
LAYER
5
50
100
AcDbSymbolTableRecord
100
AcDbLayerTableRecord
2
0
70
0
6
CONTINUOUS
0
ENDTAB
0
TABLE
2
STYLE
5
3
100
AcDbSymbolTable
70
1
0
STYLE
5
11
100
AcDbSymbolTableRecord
100
AcDbTextStyleTableRecord
2
STANDARD
70
0
0
ENDTAB
0
TABLE
2
VIEW
5
6
100
AcDbSymbolTable
70
0
0
ENDTAB
0
TABLE
2
UCS
5
7
100
AcDbSymbolTable
70
0
0
ENDTAB
0
TABLE
2
APPID
5
9
100
AcDbSymbolTable
70
2
0
APPID
5
12
100
AcDbSymbolTableRecord
100
AcDbRegAppTableRecord
2
ACAD
70
0
0
ENDTAB
0
TABLE
2
DIMSTYLE
5
A
100
AcDbSymbolTable
70
1
0
ENDTAB
0
TABLE
2
BLOCK_RECORD
5
1
100
AcDbSymbolTable
70
1
0
BLOCK_RECORD
5
1F
100
AcDbSymbolTableRecord
100
AcDbBlockTableRecord
2
*MODEL_SPACE
0
BLOCK_RECORD
5
1B
100
AcDbSymbolTableRecord
100
AcDbBlockTableRecord
2
*PAPER_SPACE
0
ENDTAB
0
ENDSEC
0
SECTION
2
BLOCKS
0
BLOCK
5
20
100
AcDbEntity
100
AcDbBlockBegin
2
*MODEL_SPACE
0
ENDBLK
5
21
100
AcDbEntity
100
AcDbBlockEnd
0
BLOCK
5
1C
100
AcDbEntity
100
AcDbBlockBegin
2
*PAPER_SPACE
0
ENDBLK
5
1D
100
AcDbEntity
100
AcDbBlockEnd
0
ENDSEC
0
SECTION
2
ENTITIES
0
SPLINE
5
100
100
AcDbEntity
8
0
100
AcDbSpline
70
4
71
5
72
31
73
25
74
0
42
0.000000001
43
0.0000000001
44
0.0000000001
40
0
40
0
40
0
40
0
40
0
40
0
40
0.050000000000000003
40
0.10000000000000001
40
0.15000000000000002
40
0.20000000000000001
40
0.25
40
0.29999999999999999
40
0.34999999999999998
40
0.39999999999999997
40
0.44999999999999996
40
0.49999999999999994
40
0.54999999999999993
40
0.59999999999999998
40
0.65000000000000002
40
0.70000000000000007
40
0.75000000000000011
40
0.80000000000000016
40
0.8500000000000002
40
0.90000000000000024
40
0.95000000000000029
40
1
40
1
40
1
40
1
40
1
40
1
41
1
41
1
41
1
41
1
41
1
41
1
41
1
41
1
41
1
41
1
41
1
41
1
41
1
41
1
41
1
41
1
41
1
41
1
41
1
41
1
41
1
41
1
41
1
41
1
41
1
10
1.8884579330823206
20
-4.1559917484274589
30
0.024881100043433774
10
1.8969552185948293
20
-4.1430672840703648
30
0.024881100043433718
10
1.9126607801883528
20
-4.1181215011948922
30
0.024881100043433642
10
1.9323723133895248
20
-4.0833990542733352
30
0.024881100043433729
10
1.9507315691897695
20
-4.0425986468118742
30
0.024881100043433805
10
1.9568598116524865
20
-4.0025198345911788
30
0.02488110004343376
10
1.9326018783565344
20
-3.9808764599971607
30
0.024881100043433784
10
1.8559346163724819
20
-3.989658035523274
30
0.024881100043433788
10
1.7476534785199953
20
-4.0133173416415575
30
0.024881100043433767
10
1.6417747864405752
20
-4.0286596995578323
30
0.02488110004343376
10
1.575691029855502
20
-4.0118336192330295
30
0.024881100043433777
10
1.5733346053918973
20
-3.9503759330409416
30
0.024881100043433774
10
1.6289685479602092
20
-3.8534886361066434
30
0.024881100043433749
10
1.7164577421973108
20
-3.7425376376769042
30
0.024881100043433756
10
1.8008712495352321
20
-3.642739116627463
30
0.024881100043433826
10
1.8510745492875149
20
-3.5722097439554581
30
0.024881100043433798
10
1.847134214886907
20
-3.5374263635352534
30
0.024881100043433736
10
1.8018679638514459
20
-3.5124902599565155
30
0.02488110004343385
10
1.7317927767142911
20
-3.4760492233281997
30
0.024881100043434145
10
1.6495608912759296
20
-3.4168566204853725
30
0.024881100043434506
10
1.5666501701707642
20
-3.3284844277441579
30
0.024881100043434672
10
1.5065873915601107
20
-3.2328466864401628
30
0.024881100043434558
10
1.4676140542701954
20
-3.1471015931042361
30
0.024881100043434499
10
1.444600210900634
20
-3.0837935172116819
30
0.024881100043434471
10
1.4338357086888907
20
-3.0506029687254737
30
0.024881100043434471
0
SPLINE
5
101
100
AcDbEntity
8
0
100
AcDbSpline
70
4
71
5
72
46
73
40
74
0
42
0.000000001
43
0.0000000001
44
0.0000000001
40
0
40
0
40
0
40
0
40
0
40
0
40
0.028571428571428571
40
0.057142857142857141
40
0.085714285714285715
40
0.11428571428571428
40
0.14285714285714285
40
0.17142857142857143
40
0.20000000000000001
40
0.22857142857142859
40
0.25714285714285717
40
0.28571428571428575
40
0.31428571428571433
40
0.34285714285714292
40
0.3714285714285715
40
0.40000000000000008
40
0.42857142857142866
40
0.45714285714285724
40
0.48571428571428582
40
0.51428571428571435
40
0.54285714285714293
40
0.57142857142857151
40
0.60000000000000009
40
0.62857142857142867
40
0.65714285714285725
40
0.68571428571428583
40
0.71428571428571441
40
0.74285714285714299
40
0.77142857142857157
40
0.80000000000000016
40
0.82857142857142874
40
0.85714285714285732
40
0.8857142857142859
40
0.91428571428571448
40
0.94285714285714306
40
0.97142857142857164
40
1
40
1
40
1
40
1
40
1
40
1
41
1
41
1
41
1
41
1
41
1
41
1
41
1
41
1
41
1
41
1
41
1
41
1
41
1
41
1
41
1
41
1
41
1
41
1
41
1
41
1
41
1
41
1
41
1
41
1
41
1
41
1
41
1
41
1
41
1
41
1
41
1
41
1
41
1
41
1
41
1
41
1
41
1
41
1
41
1
41
1
10
1.4338357086888907
20
-3.0506029687254737
30
0.024881100043434471
10
1.4154539229942493
20
-3.045962816644177
30
0.024881100043434471
10
1.3684085945008884
20
-3.0287887941040967
30
0.024881100336087474
10
1.2668123934989663
20
-2.9792780301947688
30
0.024881101669054856
10
1.1037583383893412
20
-2.8862942298903036
30
0.0248811033836915
10
0.96464211425226165
20
-2.8059672713297954
30
0.024881101227188999
10
0.92416557034390834
20
-2.816289493305943
30
0.024881096611013183
10
0.73425724295269412
20
-2.8525940886922907
30
0.024881112565962878
10
0.45212798908587359
20
-2.8855974536111719
30
0.024881121628996774
10
0.22344339356448284
20
-2.8850702775696822
30
0.024881106632501024
10
0.186807055874706
20
-2.8135740292480196
30
0.024881079920913613
10
0.28425890114321012
20
-2.5806800470602718
30
0.024881173910249962
10
0.43137691320150995
20
-2.3092560721706361
30
0.02488123001429542
10
0.53616565947562012
20
-2.1316756877221041
30
0.024881168820551646
10
0.52626298125049875
20
-2.125301937410355
30
0.024880972177854691
10
0.36598046489159514
20
-2.0345951261400379
30
0.024881429243042808
10
0.12971944509783637
20
-1.8125469591170245
30
0.024881907011140063
10
-0.058070292757416146
20
-1.5530606972656942
30
0.024881880465754163
10
-0.086189597129502929
20
-1.3850319515445042
30
0.024880653126366156
10
0.1066453292717604
20
-1.3705096734006343
30
0.024881340718964536
10
0.42090601879434142
20
-1.445789573527406
30
0.024884015461749065
10
0.6622723794651737
20
-1.525336244752141
30
0.024884028773277028
10
0.65619337922562415
20
-1.513138157468541
30
0.024878483357852168
10
0.44939053625437236
20
-1.3479975050855943
30
0.024883887704722302
10
0.17207871124812535
20
-1.029420800752135
30
0.024908210158978102
10
-0.11277954595980193
20
-0.59892124649107903
30
0.024939048240504462
10
-0.34751061093243657
20
-0.12380752012398136
30
0.024960044095001879
10
-0.50169297940438895
20
0.31988358133016853
30
0.024956256849070546
10
-0.55843184644318233
20
0.663549630371981
30
0.024923896679938648
10
-0.51611016350164107
20
0.86366054916988544
30
0.024879048167597118
10
-0.38352866638323996
20
0.91630107647127745
30
0.024864898486883415
10
-0.17829964492742886
20
0.88147855082064686
30
0.024967616485747319
10
0.086717905287054711
20
0.79476270179260566
30
0.025179302271298911
10
0.400908948880218
20
0.68196757703249244
30
0.025441687634670137
10
0.75644087546205363
20
0.55739051986448607
30
0.025658372996934832
10
1.1476243152862191
20
0.4281826284917743
30
0.025718861155493201
10
1.4861524987019035
20
0.32248992982311564
30
0.025557731177981564
10
1.753536804828477
20
0.24152051174853034
30
0.025283128324691404
10
1.9377115892103196
20
0.18663189664254415
30
0.02502724504833535
10
2.0312785907162478
20
0.15896052074371239
30
0.024881100043434471
0
SPLINE
5
102
100
AcDbEntity
8
0
100
AcDbSpline
70
6
71
5
72
31
73
25
74
0
42
0.000000001
43
0.0000000001
44
0.0000000001
40
0
40
0
40
0
40
0
40
0
40
0
40
0.050000000000000003
40
0.10000000000000001
40
0.15000000000000002
40
0.20000000000000001
40
0.25
40
0.29999999999999999
40
0.34999999999999998
40
0.39999999999999997
40
0.44999999999999996
40
0.49999999999999994
40
0.54999999999999993
40
0.59999999999999998
40
0.65000000000000002
40
0.70000000000000007
40
0.75000000000000011
40
0.80000000000000016
40
0.8500000000000002
40
0.90000000000000024
40
0.95000000000000029
40
1
40
1
40
1
40
1
40
1
40
1
41
1
41
1
41
1
41
1
41
1
41
1
41
1
41
1
41
1
41
1
41
1
41
1
41
1
41
1
41
1
41
1
41
1
41
1
41
1
41
1
41
1
41
1
41
1
41
1
41
1
10
2.4415835617985633
20
-1.9983559912429114
30
0.024881100043433774
10
2.4387427198154756
20
-1.9932893962732905
30
0.024881100043431876
10
2.433521792018043
20
-1.982112076815941
30
0.024881100043427761
10
2.4284027013636567
20
-1.9634931076234272
30
0.024881100043421495
10
2.434259491153389
20
-1.9427692000215471
30
0.024881100043416284
10
2.4680472564878073
20
-1.9272726492297347
30
0.024881100043416714
10
2.529154386235331
20
-1.9236146995153847
30
0.024881100043422255
10
2.6114997699723008
20
-1.9284072928290037
30
0.024881100043429107
10
2.7023162388215933
20
-1.938482330958925
30
0.024881100043433853
10
2.7851131571325607
20
-1.9506920815624844
30
0.024881100043434069
10
2.8317617655254455
20
-1.9684689339275552
30
0.02488110004343309
10
2.8280118374400676
20
-1.9921098076753394
30
0.024881100043433482
10
2.7828489514532349
20
-2.0161493486656434
30
0.024881100043434221
10
2.7140792783867127
20
-2.0349485817158608
30
0.024881100043433805
10
2.6484150610324577
20
-2.0479008810114503
30
0.024881100043432539
10
2.5976162519206061
20
-2.0548478246390345
30
0.024881100043431068
10
2.561687133534162
20
-2.0548881116136251
30
0.024881100043429985
10
2.5346494013537253
20
-2.0479694177474586
30
0.024881100043429898
10
2.5102953781527688
20
-2.0364393839206243
30
0.024881100043431411
10
2.4848773959604635
20
-2.0240232217221381
30
0.024881100043434558
10
2.4689091218896002
20
-2.0227777902834227
30
0.024881100043440262
10
2.4598327400895768
20
-2.0217334501631576
30
0.024881100043441864
10
2.450566843916564
20
-2.0125116466336621
30
0.024881100043439078
10
2.4444244037816509
20
-2.0034225862125323
30
0.024881100043435668
10
2.4415835617985633
20
-1.9983559912429114
30
0.024881100043433774
0
SPLINE
5
103
100
AcDbEntity
8
0
100
AcDbSpline
70
4
71
5
72
16
73
10
74
0
42
0.000000001
43
0.0000000001
44
0.0000000001
40
0
40
0
40
0
40
0
40
0
40
0
40
0.20000000000000001
40
0.40000000000000002
40
0.60000000000000009
40
0.80000000000000004
40
1
40
1
40
1
40
1
40
1
40
1
41
1
41
1
41
1
41
1
41
1
41
1
41
1
41
1
41
1
41
1
10
3.518252348025269
20
-2.0294167441777811
30
0.024881100043433774
10
3.5333824966994292
20
-2.0430609758690523
30
0.024881100043433774
10
3.570186334285598
20
-2.0662539934939743
30
0.024881100043433805
10
3.6450011833925537
20
-2.0887674682955875
30
0.024881100043434166
10
3.7752141951247342
20
-2.0969564173571529
30
0.024881100043434263
10
3.9480783959328472
20
-2.0782773469649118
30
0.024881100043434155
10
4.0564777616773826
20
-2.0422344787168321
30
0.024881100043433892
10
4.1003748822796755
20
-2.0020556681654016
30
0.024881100043433794
10
4.1093748212480712
20
-1.9688703543158488
30
0.024881100043433774
10
4.1088035379275292
20
-1.9506765855241459
30
0.024881100043433774
0
SPLINE
5
104
100
AcDbEntity
8
0
100
AcDbSpline
70
4
71
5
72
16
73
10
74
0
42
0.000000001
43
0.0000000001
44
0.0000000001
40
0
40
0
40
0
40
0
40
0
40
0
40
0.20000000000000001
40
0.40000000000000002
40
0.60000000000000009
40
0.80000000000000004
40
1
40
1
40
1
40
1
40
1
40
1
41
1
41
1
41
1
41
1
41
1
41
1
41
1
41
1
41
1
41
1
10
3.3875545608907465
20
-1.0319902272910826
30
0.024881100043434471
10
3.3868933005823205
20
-1.0088955946825944
30
0.024881100043434471
10
3.4086039447469751
20
-0.96942163347140065
30
0.024881100043434488
10
3.510196583313447
20
-0.93033908826344436
30
0.024881100043434728
10
3.7554354260303673
20
-0.91345833963537626
30
0.024881100043434787
10
4.1184792088055655
20
-0.93516282582350074
30
0.0248811000434347
10
4.3406057701532781
20
-0.97900694172814184
30
0.02488110004343452
10
4.4094400499886595
20
-1.0259932213360119
30
0.024881100043434478
10
4.4016915414569588
20
-1.0639198000439065
30
0.024881100043434471
10
4.384394093215251
20
-1.0845348403341653
30
0.024881100043434471
0
SPLINE
5
105
100
AcDbEntity
8
0
100
AcDbSpline
70
4
71
5
72
26
73
20
74
0
42
0.000000001
43
0.0000000001
44
0.0000000001
40
0
40
0
40
0
40
0
40
0
40
0
40
0.066666666666666666
40
0.13333333333333333
40
0.20000000000000001
40
0.26666666666666666
40
0.33333333333333331
40
0.39999999999999997
40
0.46666666666666662
40
0.53333333333333333
40
0.59999999999999998
40
0.66666666666666663
40
0.73333333333333328
40
0.79999999999999993
40
0.86666666666666659
40
0.93333333333333324
40
1
40
1
40
1
40
1
40
1
40
1
41
1
41
1
41
1
41
1
41
1
41
1
41
1
41
1
41
1
41
1
41
1
41
1
41
1
41
1
41
1
41
1
41
1
41
1
41
1
41
1
10
4.0750668564419534
20
-2.2396815801965322
30
0.024881100043433774
10
4.0864874967151126
20
-2.2233965931403601
30
0.024881100043433774
10
4.1102209679286821
20
-2.1915598618952306
30
0.024881100043433673
10
4.1484968030045186
20
-2.1460062648143281
30
0.02488110004343317
10
4.2024862444645947
20
-2.0921456084188206
30
0.02488110004343291
10
4.2628321548012016
20
-2.0482355901366351
30
0.024881100043433056
10
4.3038307425456557
20
-2.0385691245904565
30
0.024881100043433548
10
4.3187693606358231
20
-2.0665875002798284
30
0.024881100043433843
10
4.3128861203482538
20
-2.1203175052239898
30
0.024881100043433729
10
4.309444717067672
20
-2.1662722052166008
30
0.02488110004343369
10
4.3136449478695305
20
-2.2027084670866897
30
0.024881100043433708
10
4.3261708386837698
20
-2.2318377171024406
30
0.024881100043433788
10
4.3451130458673095
20
-2.2530516092976103
30
0.024881100043433774
10
4.3742859311675559
20
-2.2399062403567966
30
0.024881100043433736
10
4.4139865943347161
20
-2.1954365558764062
30
0.024881100043433673
10
4.4630069679126718
20
-2.1360101643351377
30
0.024881100043433645
10
4.5079975335033939
20
-2.095203638648742
30
0.02488110004343369
10
4.5441136015896841
20
-2.077732638900748
30
0.024881100043433749
10
4.5691173129262603
20
-2.0732574540677016
30
0.024881100043433774
10
4.5818508228580841
20
-2.07281243208267
30
0.024881100043433774
0
SPLINE
5
106
100
AcDbEntity
8
0
100
AcDbSpline
70
4
71
5
72
21
73
15
74
0
42
0.000000001
43
0.0000000001
44
0.0000000001
40
0
40
0
40
0
40
0
40
0
40
0
40
0.10000000000000001
40
0.20000000000000001
40
0.30000000000000004
40
0.40000000000000002
40
0.5
40
0.59999999999999998
40
0.69999999999999996
40
0.79999999999999993
40
0.89999999999999991
40
1
40
1
40
1
40
1
40
1
40
1
41
1
41
1
41
1
41
1
41
1
41
1
41
1
41
1
41
1
41
1
41
1
41
1
41
1
41
1
41
1
10
2.0615594129330259
20
-1.1239049196609809
30
0.024881100043434471
10
2.0631235161325567
20
-1.129624362949925
30
0.024881100043434471
10
2.0581272247084739
20
-1.1384636731203628
30
0.024881100043434481
10
2.0262636218385706
20
-1.143925879577163
30
0.02488110004343462
10
1.9414345595252858
20
-1.1384040574084662
30
0.024881100043434468
10
1.7984152360585552
20
-1.1247517269219749
30
0.024881100043433954
10
1.6564547013857631
20
-1.1205968455614357
30
0.024881100043433836
10
1.546458818534588
20
-1.1385214590775952
30
0.024881100043434596
10
1.4782783220353171
20
-1.1807592369152238
30
0.024881100043435404
10
1.4310729112268274
20
-1.2348430301073596
30
0.024881100043435651
10
1.3683363653577227
20
-1.2810622795754918
30
0.024881100043435328
10
1.2723056430177047
20
-1.2942525380298253
30
0.02488110004343486
10
1.1586252006803048
20
-1.2825757492438417
30
0.024881100043434565
10
1.0621114051682046
20
-1.2640732297481698
30
0.024881100043434471
10
1.0086725617979808
20
-1.252142351469822
30
0.024881100043434471
0
SPLINE
5
107
100
AcDbEntity
8
0
100
AcDbSpline
70
4
71
5
72
21
73
15
74
0
42
0.000000001
43
0.0000000001
44
0.0000000001
40
0
40
0
40
0
40
0
40
0
40
0
40
0.10000000000000001
40
0.20000000000000001
40
0.30000000000000004
40
0.40000000000000002
40
0.5
40
0.59999999999999998
40
0.69999999999999996
40
0.79999999999999993
40
0.89999999999999991
40
1
40
1
40
1
40
1
40
1
40
1
41
1
41
1
41
1
41
1
41
1
41
1
41
1
41
1
41
1
41
1
41
1
41
1
41
1
41
1
41
1
10
4.4845771013626088
20
-1.8811544653697967
30
0.024881100043433774
10
4.4741408745621838
20
-1.880369117656514
30
0.024881100043433774
10
4.4561316667661366
20
-1.8685722166391312
30
0.024881100043433708
10
4.4377078662743497
20
-1.8202283672225361
30
0.02488110004343334
10
4.4285025044448547
20
-1.7055077551665261
30
0.024881100043433472
10
4.4323220684677356
20
-1.5364184840061164
30
0.024881100043434023
10
4.4380153067781531
20
-1.4014022090924887
30
0.024881100043434554
10
4.4316317418798876
20
-1.3458461554712096
30
0.024881100043434461
10
4.400272203125021
20
-1.3560795820021174
30
0.024881100043434405
10
4.3366185803095751
20
-1.3809473775259911
30
0.024881100043435314
10
4.2389522048994577
20
-1.4043288604330271
30
0.024881100043436428
10
4.1340410749652747
20
-1.412226818605562
30
0.024881100043436646
10
4.0409345950117217
20
-1.4113872987950939
30
0.024881100043435952
10
3.9725541002223466
20
-1.4077715097632253
30
0.02488110004343504
10
3.9367866522931267
20
-1.4052053866700853
30
0.024881100043434471
0
SPLINE
5
108
100
AcDbEntity
8
0
100
AcDbSpline
70
4
71
5
72
31
73
25
74
0
42
0.000000001
43
0.0000000001
44
0.0000000001
40
0
40
0
40
0
40
0
40
0
40
0
40
0.050000000000000003
40
0.10000000000000001
40
0.15000000000000002
40
0.20000000000000001
40
0.25
40
0.29999999999999999
40
0.34999999999999998
40
0.39999999999999997
40
0.44999999999999996
40
0.49999999999999994
40
0.54999999999999993
40
0.59999999999999998
40
0.65000000000000002
40
0.70000000000000007
40
0.75000000000000011
40
0.80000000000000016
40
0.8500000000000002
40
0.90000000000000024
40
0.95000000000000029
40
1
40
1
40
1
40
1
40
1
40
1
41
1
41
1
41
1
41
1
41
1
41
1
41
1
41
1
41
1
41
1
41
1
41
1
41
1
41
1
41
1
41
1
41
1
41
1
41
1
41
1
41
1
41
1
41
1
41
1
41
1
10
1.1560475884162258
20
-2.0294167441777811
30
0.024881100043433774
10
1.14054820727573
20
-2.0100425177521615
30
0.024881100043433774
10
1.1113800017886242
20
-1.969829619465814
30
0.024881100043433777
10
1.0759589880365317
20
-1.8975351017387827
30
0.02488110004343367
10
1.0494128808083771
20
-1.7687447935267253
30
0.02488110004343386
10
1.040601144597709
20
-1.5988230942469994
30
0.024881100043434176
10
1.0488179096661805
20
-1.4797921596523158
30
0.024881100043434527
10
1.0807662871032833
20
-1.4508203446945223
30
0.024881100043434488
10
1.1972777770620961
20
-1.4561796526430431
30
0.024881100043434308
10
1.4008425299712204
20
-1.4639857387596642
30
0.024881100043434259
10
1.6585530618723281
20
-1.4624714320542187
30
0.024881100043434273
10
1.9179035887911373
20
-1.4537283045032117
30
0.024881100043434346
10
2.1259257788289503
20
-1.4533554131893225
30
0.024881100043434471
10
2.2422889419080443
20
-1.4798957887673097
30
0.024881100043434471
10
2.2658831826288779
20
-1.5673705319347193
30
0.024881100043434488
10
2.2268694002281872
20
-1.7169595615523623
30
0.024881100043434242
10
2.1510421754425724
20
-1.8768156549123751
30
0.024881100043433965
10
2.0615423374252422
20
-1.9880340774798717
30
0.024881100043433746
10
1.966988777045575
20
-2.0029650878401162
30
0.024881100043433739
10
1.8534560910071298
20
-1.9228851983799748
30
0.024881100043434069
10
1.7421605904419843
20
-1.7841320424308009
30
0.02488110004343444
10
1.6795484275353714
20
-1.6659153133975171
30
0.02488110004343452
10
1.6612796512640287
20
-1.5935601223852567
30
0.024881100043434492
10
1.6637931710590295
20
-1.5554215105953257
30
0.024881100043434471
10
1.6687254379874887
20
-1.5388774493637027
30
0.024881100043434471
0
SPLINE
5
109
100
AcDbEntity
8
0
100
AcDbSpline
70
4
71
5
72
36
73
30
74
0
42
0.000000001
43
0.0000000001
44
0.0000000001
40
0
40
0
40
0
40
0
40
0
40
0
40
0.040000000000000001
40
0.080000000000000002
40
0.12
40
0.16
40
0.20000000000000001
40
0.24000000000000002
40
0.28000000000000003
40
0.32000000000000001
40
0.35999999999999999
40
0.39999999999999997
40
0.43999999999999995
40
0.47999999999999993
40
0.51999999999999991
40
0.55999999999999994
40
0.59999999999999998
40
0.64000000000000001
40
0.68000000000000005
40
0.72000000000000008
40
0.76000000000000012
40
0.80000000000000016
40
0.84000000000000019
40
0.88000000000000023
40
0.92000000000000026
40
0.9600000000000003
40
1
40
1
40
1
40
1
40
1
40
1
41
1
41
1
41
1
41
1
41
1
41
1
41
1
41
1
41
1
41
1
41
1
41
1
41
1
41
1
41
1
41
1
41
1
41
1
41
1
41
1
41
1
41
1
41
1
41
1
41
1
41
1
41
1
41
1
41
1
41
1
10
2.0312785907162478
20
0.15896052074371239
30
0.024881100043434471
10
2.0609431875119082
20
0.18197088222592459
30
0.024881100043434471
10
2.1234995642445536
20
0.22457819955776928
30
0.024881100043434527
10
2.2268832908254974
20
0.27791513145919489
30
0.024881100043434794
10
2.3616665255731624
20
0.32417876887306762
30
0.024881100043434641
10
2.4310157260202403
20
0.32903320586296708
30
0.024881100043434363
10
2.3732677039476728
20
0.36659606766251135
30
0.024881100043434558
10
2.2675114789458291
20
0.5551439706123541
30
0.024881100043434592
10
2.1671254043127863
20
0.82101835261066491
30
0.024881100043434572
10
2.124116183513391
20
1.0663287652003806
30
0.02488110004343445
10
2.1674199962116023
20
1.1915132220806679
30
0.024881100043434488
10
2.2904764381954705
20
1.2232357816401402
30
0.024881100043434461
10
2.4814813329511201
20
1.1830396340535314
30
0.024881100043434367
10
2.7256270689992781
20
1.0836968099979474
30
0.024881100043434301
10
3.003117628471109
20
0.93683125017684132
30
0.024881100043434336
10
3.2890924662323577
20
0.75532938189280152
30
0.024881100043434537
10
3.5529705408366064
20
0.55623821312500255
30
0.024881100043434672
10
3.7554250688311579
20
0.3716924372479069
30
0.02488110004343462
10
3.87019550951914
20
0.23831722071681888
30
0.02488110004343453
10
3.9034910845368946
20
0.18613082372336323
30
0.02488110004343445
10
3.915913752366226
20
0.2284045469248337
30
0.024881100043434481
10
4.0448408284609734
20
0.34869170869045557
30
0.024881100043434468
10
4.3215197044515747
20
0.52414381339759042
30
0.024881100043434412
10
4.726974058171348
20
0.72581887440229842
30
0.024881100043434353
10
5.1982314382144956
20
0.92298096981293121
30
0.024881100043434298
10
5.6534851160120265
20
1.0858297552746974
30
0.024881100043434357
10
5.9377672902926522
20
1.1682842820501704
30
0.024881100043434433
10
6.0764700282380186
20
1.1951334568852021
30
0.024881100043434471
10
6.1320127246621192
20
1.1965308009618965
30
0.024881100043434471
10
6.1505531230459543
20
1.1931038788140678
30
0.024881100043434471
0
SPLINE
5
110
100
AcDbEntity
8
0
100
AcDbSpline
70
4
71
5
72
16
73
10
74
0
42
0.000000001
43
0.0000000001
44
0.0000000001
40
0
40
0
40
0
40
0
40
0
40
0
40
0.20000000000000001
40
0.40000000000000002
40
0.60000000000000009
40
0.80000000000000004
40
1
40
1
40
1
40
1
40
1
40
1
41
1
41
1
41
1
41
1
41
1
41
1
41
1
41
1
41
1
41
1
10
1.0086725617979808
20
-1.252142351469822
30
0.024881100043434471
10
0.99847805560749991
20
-1.2337922403269561
30
0.024881100043434471
10
1.0017684035417831
20
-1.1978982680382326
30
0.024881100043434488
10
1.0776700959668817
20
-1.1464767884082656
30
0.024881100043434728
10
1.2942966073314879
20
-1.0846002620251491
30
0.024881100043434787
10
1.6440996695835883
20
-1.0324627085603946
30
0.0248811000434347
10
1.8906089292982984
20
-1.0292892710070236
30
0.02488110004343452
10
2.0088651506721575
20
-1.0610710378151598
30
0.024881100043434478
10
2.0502443584888383
20
-1.1000006292396791
30
0.024881100043434471
10
2.0615594129330259
20
-1.1239049196609809
30
0.024881100043434471
0
SPLINE
5
111
100
AcDbEntity
8
0
100
AcDbSpline
70
4
71
5
72
46
73
40
74
0
42
0.000000001
43
0.0000000001
44
0.0000000001
40
0
40
0
40
0
40
0
40
0
40
0
40
0.028571428571428571
40
0.057142857142857141
40
0.085714285714285715
40
0.11428571428571428
40
0.14285714285714285
40
0.17142857142857143
40
0.20000000000000001
40
0.22857142857142859
40
0.25714285714285717
40
0.28571428571428575
40
0.31428571428571433
40
0.34285714285714292
40
0.3714285714285715
40
0.40000000000000008
40
0.42857142857142866
40
0.45714285714285724
40
0.48571428571428582
40
0.51428571428571435
40
0.54285714285714293
40
0.57142857142857151
40
0.60000000000000009
40
0.62857142857142867
40
0.65714285714285725
40
0.68571428571428583
40
0.71428571428571441
40
0.74285714285714299
40
0.77142857142857157
40
0.80000000000000016
40
0.82857142857142874
40
0.85714285714285732
40
0.8857142857142859
40
0.91428571428571448
40
0.94285714285714306
40
0.97142857142857164
40
1
40
1
40
1
40
1
40
1
40
1
41
1
41
1
41
1
41
1
41
1
41
1
41
1
41
1
41
1
41
1
41
1
41
1
41
1
41
1
41
1
41
1
41
1
41
1
41
1
41
1
41
1
41
1
41
1
41
1
41
1
41
1
41
1
41
1
41
1
41
1
41
1
41
1
41
1
41
1
41
1
41
1
41
1
41
1
41
1
41
1
10
6.1505531230459543
20
1.1931038788140678
30
0.024881100043434471
10
6.1970955228826181
20
1.1236262686970786
30
0.024881100043434422
10
6.2765728844557938
20
0.98148847366323821
30
0.02488110004343445
10
6.3549695459782729
20
0.7587353720682023
30
0.024881100043434926
10
6.3796239251467997
20
0.44523823192588302
30
0.024881100043435831
10
6.2907503889184992
20
0.042007378443275172
30
0.024881100043436754
10
6.1041689938802985
20
-0.35046850633610271
30
0.024881100043436986
10
5.8513364756208066
20
-0.70711830097552641
30
0.024881100043436515
10
5.5711680936296073
20
-1.0042367519099034
30
0.024881100043435599
10
5.3149212571594378
20
-1.2208133602147098
30
0.024881100043434686
10
5.1352191871164923
20
-1.3468376840417091
30
0.024881100043434367
10
5.1120338537570635
20
-1.3754716292192513
30
0.024881100043434554
10
5.2925420479433756
20
-1.3333807088844727
30
0.02488110004343461
10
5.5213883670802621
20
-1.3225308406268654
30
0.024881100043434537
10
5.6266926394514893
20
-1.424825072133431
30
0.024881100043434422
10
5.5268743442143755
20
-1.6249050435287691
30
0.024881100043434204
10
5.3102973389918251
20
-1.8401826584967222
30
0.024881100043433978
10
5.1090119765298381
20
-1.9974767378141007
30
0.024881100043433777
10
5.0532040037057584
20
-2.0491519491037851
30
0.024881100043433756
10
5.1298360659124791
20
-2.0994411146533025
30
0.024881100043433798
10
5.2496736157711732
20
-2.257488154082492
30
0.024881100043433722
10
5.3894294392779756
20
-2.4636125069738699
30
0.024881100043433624
10
5.5055018214436018
20
-2.6410084870693096
30
0.024881100043433701
10
5.5094379111094165
20
-2.7316037581272852
30
0.024881100043433878
10
5.2579849436479211
20
-2.7796476856645196
30
0.024881100043434006
10
4.9050307108071971
20
-2.7914453367315946
30
0.024881100043434148
10
4.6284522735283469
20
-2.7827266788062208
30
0.024881100043434308
10
4.5815700006205144
20
-2.7654848138075274
30
0.024881100043434481
10
4.6019913049665595
20
-2.793251161302007
30
0.024881100043434558
10
4.4045371957175972
20
-2.8956054436961018
30
0.02488110004343453
10
4.1131639360843044
20
-2.9972432922856691
30
0.024881100043434481
10
3.8887756680510868
20
-3.0418644467965308
30
0.024881100043434461
10
3.8781564613648083
20
-3.0355577321982197
30
0.024881100043434509
10
3.9795452666956042
20
-3.1594760447236667
30
0.024881100043434405
10
4.1305329134383131
20
-3.4217818966378899
30
0.024881100043434221
10
4.2746908616275014
20
-3.7562806255354726
30
0.024881100043433975
10
4.3540378530333559
20
-3.9920447775192938
30
0.024881100043433836
10
4.3822889181822351
20
-4.1046323208900457
30
0.024881100043433805
10
4.3861839999697096
20
-4.1443632695067647
30
0.024881100043433774
10
4.3843940932152528
20
-4.1554010278259188
30
0.024881100043433774
0
SPLINE
5
112
100
AcDbEntity
8
0
100
AcDbSpline
70
4
71
5
72
16
73
10
74
0
42
0.000000001
43
0.0000000001
44
0.0000000001
40
0
40
0
40
0
40
0
40
0
40
0
40
0.20000000000000001
40
0.40000000000000002
40
0.60000000000000009
40
0.80000000000000004
40
1
40
1
40
1
40
1
40
1
40
1
41
1
41
1
41
1
41
1
41
1
41
1
41
1
41
1
41
1
41
1
10
1.4118075548837195
20
-2.0988636598468537
30
0.024881100043433774
10
1.4233720551758047
20
-2.0944549202935416
30
0.024881100043433774
10
1.4483580590559988
20
-2.0883174741518702
30
0.024881100043433805
10
1.4914046700450065
20
-2.0871426188502982
30
0.024881100043434166
10
1.5597900450255398
20
-2.0980795153980147
30
0.024881100043434263
10
1.6673062858693528
20
-2.1161147683181354
30
0.024881100043434155
10
1.7786078491691857
20
-2.1187023972347676
30
0.024881100043433892
10
1.8824820292707949
20
-2.1056936472244989
30
0.024881100043433794
10
1.9621694503174927
20
-2.0889141382713881
30
0.024881100043433774
10
2.0046249631780335
20
-2.0784956075080649
30
0.024881100043433774
0
SPLINE
5
113
100
AcDbEntity
8
0
100
AcDbSpline
70
4
71
5
72
26
73
20
74
0
42
0.000000001
43
0.0000000001
44
0.0000000001
40
0
40
0
40
0
40
0
40
0
40
0
40
0.066666666666666666
40
0.13333333333333333
40
0.20000000000000001
40
0.26666666666666666
40
0.33333333333333331
40
0.39999999999999997
40
0.46666666666666662
40
0.53333333333333333
40
0.59999999999999998
40
0.66666666666666663
40
0.73333333333333328
40
0.79999999999999993
40
0.86666666666666659
40
0.93333333333333324
40
1
40
1
40
1
40
1
40
1
40
1
41
1
41
1
41
1
41
1
41
1
41
1
41
1
41
1
41
1
41
1
41
1
41
1
41
1
41
1
41
1
41
1
41
1
41
1
41
1
41
1
10
4.0750668564419534
20
-2.2396815801965322
30
0.024881100043433774
10
4.0805157055584491
20
-2.252758818076122
30
0.024881100043433774
10
4.092807459143204
20
-2.2720805505397599
30
0.024881100043433919
10
4.1154255260873294
20
-2.2805675699133188
30
0.024881100043434662
10
4.1517870469882352
20
-2.2584835132124392
30
0.024881100043435241
10
4.1965778860247749
20
-2.213868234331319
30
0.024881100043434572
10
4.2294963398236458
20
-2.1924233093223124
30
0.024881100043433711
10
4.2438182275403404
20
-2.2185894958573527
30
0.024881100043433309
10
4.2438563025424347
20
-2.281343739969544
30
0.024881100043433284
10
4.2414434170935529
20
-2.3495512539127659
30
0.024881100043433555
10
4.2498383773522095
20
-2.3907437729818066
30
0.024881100043433805
10
4.2792493487357337
20
-2.3859216415182871
30
0.024881100043433812
10
4.3300831008432006
20
-2.353342673917191
30
0.0248811000434335
10
4.3959704016360055
20
-2.3038858908001876
30
0.024881100043433205
10
4.4665853668268705
20
-2.2463549771467091
30
0.024881100043433104
10
4.5297588287940984
20
-2.1863944139523288
30
0.024881100043433264
10
4.5649967323121556
20
-2.1394019327895517
30
0.024881100043433527
10
4.5787863806853331
20
-2.1055186394327943
30
0.024881100043433729
10
4.5818508228580841
20
-2.0836024850605375
30
0.024881100043433774
10
4.5818508228580841
20
-2.07281243208267
30
0.024881100043433774
0
SPLINE
5
114
100
AcDbEntity
8
0
100
AcDbSpline
70
4
71
5
72
36
73
30
74
0
42
0.000000001
43
0.0000000001
44
0.0000000001
40
0
40
0
40
0
40
0
40
0
40
0
40
0.040000000000000001
40
0.080000000000000002
40
0.12
40
0.16
40
0.20000000000000001
40
0.24000000000000002
40
0.28000000000000003
40
0.32000000000000001
40
0.35999999999999999
40
0.39999999999999997
40
0.43999999999999995
40
0.47999999999999993
40
0.51999999999999991
40
0.55999999999999994
40
0.59999999999999998
40
0.64000000000000001
40
0.68000000000000005
40
0.72000000000000008
40
0.76000000000000012
40
0.80000000000000016
40
0.84000000000000019
40
0.88000000000000023
40
0.92000000000000026
40
0.9600000000000003
40
1
40
1
40
1
40
1
40
1
40
1
41
1
41
1
41
1
41
1
41
1
41
1
41
1
41
1
41
1
41
1
41
1
41
1
41
1
41
1
41
1
41
1
41
1
41
1
41
1
41
1
41
1
41
1
41
1
41
1
41
1
41
1
41
1
41
1
41
1
41
1
10
0.82189407753239074
20
-2.2518872753646715
30
0.024881100043433774
10
0.83366316153478326
20
-2.2425524258584306
30
0.024881100043436286
10
0.85589891207638913
20
-2.2254340761717879
30
0.024881100043440456
10
0.88534629956877109
20
-2.20441137009293
30
0.024881100043443936
10
0.91684379006729677
20
-2.1858273581441217
30
0.024881100043445126
10
0.9438036170245393
20
-2.1787601113002562
30
0.024881100043442624
10
0.95923252377099189
20
-2.1875507408231556
30
0.024881100043438131
10
0.9647774515543972
20
-2.2107187287282062
30
0.024881100043432899
10
0.96220148948024831
20
-2.2443233089947969
30
0.024881100043428948
10
0.95592392935136949
20
-2.2830446983824642
30
0.024881100043427553
10
0.95245689896761321
20
-2.321673571640503
30
0.024881100043428511
10
0.9578444325730836
20
-2.3554136889639254
30
0.02488110004343096
10
0.9765468832241696
20
-2.3804418232248663
30
0.024881100043433642
10
1.0081970178459068
20
-2.3948679151393146
30
0.02488110004343588
10
1.0490891325234528
20
-2.3982527898931041
30
0.024881100043437514
10
1.0974231451466747
20
-2.3900302999486578
30
0.024881100043438503
10
1.1510960398757915
20
-2.3703700625542643
30
0.024881100043438777
10
1.2078554629562228
20
-2.3403929540599222
30
0.024881100043438308
10
1.2649186661118952
20
-2.3022572743883041
30
0.024881100043437129
10
1.3177466339205446
20
-2.2602785895720507
30
0.024881100043435418
10
1.3616531372487786
20
-2.2193887481516987
30
0.024881100043433461
10
1.3862224161441441
20
-2.190127428595527
30
0.02488110004343197
10
1.3910574503953845
20
-2.1744045042000173
30
0.024881100043431598
10
1.3853941516277097
20
-2.1657293748558728
30
0.024881100043432695
10
1.3764946866919412
20
-2.1595988655432987
30
0.02488110004343504
10
1.3610892981928679
20
-2.1610650728089351
30
0.024881100043437493
10
1.3442171100593638
20
-2.1682453132136676
30
0.024881100043437975
10
1.3295370466561345
20
-2.1765623219853127
30
0.024881100043436639
10
1.3189914381626846
20
-2.1832593680363535
30
0.02488110004343488
10
1.3135279057234961
20
-2.1868970614850505
30
0.024881100043433774
0
SPLINE
5
115
100
AcDbEntity
8
0
100
AcDbSpline
70
4
71
5
72
21
73
15
74
0
42
0.000000001
43
0.0000000001
44
0.0000000001
40
0
40
0
40
0
40
0
40
0
40
0
40
0.10000000000000001
40
0.20000000000000001
40
0.30000000000000004
40
0.40000000000000002
40
0.5
40
0.59999999999999998
40
0.69999999999999996
40
0.79999999999999993
40
0.89999999999999991
40
1
40
1
40
1
40
1
40
1
40
1
41
1
41
1
41
1
41
1
41
1
41
1
41
1
41
1
41
1
41
1
41
1
41
1
41
1
41
1
41
1
10
3.3875545608907465
20
-1.0319902272910826
30
0.024881100043434471
10
3.3953225563345839
20
-1.0362166925777025
30
0.024881100043434471
10
3.4127052411183167
20
-1.0425003622498545
30
0.024881100043434374
10
3.4443170900189979
20
-1.0454199333088663
30
0.024881100043433947
10
3.4980300077399278
20
-1.0382458224759061
30
0.024881100043433985
10
3.5859956934477277
20
-1.0210502749403789
30
0.024881100043434929
10
3.6948781717909771
20
-1.0070166335878596
30
0.02488110004343487
10
3.8201763075053785
20
-1.0052260394981409
30
0.024881100043433777
10
3.9513688350707592
20
-1.0175381364814564
30
0.02488110004343308
10
4.0805051890245299
20
-1.0396186832492649
30
0.024881100043433111
10
4.2001805923229654
20
-1.0641148907996514
30
0.024881100043433711
10
4.2837247219213355
20
-1.0789953647169221
30
0.024881100043434225
10
4.3376515417407093
20
-1.084385097210546
30
0.024881100043434429
10
4.3694976121650679
20
-1.0849839854912353
30
0.024881100043434471
10
4.384394093215251
20
-1.0845348403341653
30
0.024881100043434471
0
LINE
5
116
100
AcDbEntity
8
0
100
AcDbLine
10
1.8884579330823206
20
-4.1559917484274589
30
0.024881100043433774
11
4.3843940932152528
21
-4.1554010278259188
31
0.024881100043433774
0
SPLINE
5
117
100
AcDbEntity
8
0
100
AcDbSpline
70
4
71
5
72
31
73
25
74
0
42
0.000000001
43
0.0000000001
44
0.0000000001
40
0
40
0
40
0
40
0
40
0
40
0
40
0.050000000000000003
40
0.10000000000000001
40
0.15000000000000002
40
0.20000000000000001
40
0.25
40
0.29999999999999999
40
0.34999999999999998
40
0.39999999999999997
40
0.44999999999999996
40
0.49999999999999994
40
0.54999999999999993
40
0.59999999999999998
40
0.65000000000000002
40
0.70000000000000007
40
0.75000000000000011
40
0.80000000000000016
40
0.8500000000000002
40
0.90000000000000024
40
0.95000000000000029
40
1
40
1
40
1
40
1
40
1
40
1
41
1
41
1
41
1
41
1
41
1
41
1
41
1
41
1
41
1
41
1
41
1
41
1
41
1
41
1
41
1
41
1
41
1
41
1
41
1
41
1
41
1
41
1
41
1
41
1
41
1
10
4.4845771013626088
20
-1.8811544653697967
30
0.024881100043433774
10
4.4927526339850745
20
-1.8788179806837397
30
0.024881100043433774
10
4.5073417870012369
20
-1.8617733338122746
30
0.024881100043433853
10
4.5239616911319329
20
-1.7991159374150911
30
0.024881100043434374
10
4.5373102544854955
20
-1.6557834512690726
30
0.024881100043434849
10
4.5447750800579492
20
-1.4518572654865918
30
0.024881100043434738
10
4.536851827592792
20
-1.298566451110958
30
0.024881100043434429
10
4.4931115440738383
20
-1.2446197035467306
30
0.024881100043434461
10
4.3505508856090493
20
-1.2573333362369581
30
0.024881100043434575
10
4.115201697168489
20
-1.3006648930858544
30
0.024881100043434717
10
3.831983057473582
20
-1.3452175942918814
30
0.024881100043434735
10
3.5658149793499132
20
-1.3699880500394188
30
0.024881100043434624
10
3.3744165422677996
20
-1.3780196355538004
30
0.02488110004343452
10
3.2967470192480595
20
-1.384185233397216
30
0.024881100043434402
10
3.3055212002397032
20
-1.468255166458883
30
0.024881100043434547
10
3.3593746119011954
20
-1.6440745898719005
30
0.024881100043434613
10
3.4448059048902664
20
-1.8281878378319194
30
0.024881100043434374
10
3.5498126018156739
20
-1.9336193326399855
30
0.024881100043433749
10
3.6643799448135987
20
-1.911870696967743
30
0.024881100043433479
10
3.768446895572918
20
-1.8276251851004541
30
0.024881100043435456
10
3.8524477324564583
20
-1.7063961690451506
30
0.024881100043438131
10
3.8994318340071761
20
-1.5936208300531838
30
0.024881100043438843
10
3.92274135807958
20
-1.5020466325480031
30
0.024881100043437538
10
3.932986722106409
20
-1.4379903512857461
30
0.024881100043435651
10
3.9367866522931267
20
-1.4052053866700853
30
0.024881100043434471
0
SPLINE
5
118
100
AcDbEntity
8
0
100
AcDbSpline
70
4
71
5
72
26
73
20
74
0
42
0.000000001
43
0.0000000001
44
0.0000000001
40
0
40
0
40
0
40
0
40
0
40
0
40
0.066666666666666666
40
0.13333333333333333
40
0.20000000000000001
40
0.26666666666666666
40
0.33333333333333331
40
0.39999999999999997
40
0.46666666666666662
40
0.53333333333333333
40
0.59999999999999998
40
0.66666666666666663
40
0.73333333333333328
40
0.79999999999999993
40
0.86666666666666659
40
0.93333333333333324
40
1
40
1
40
1
40
1
40
1
40
1
41
1
41
1
41
1
41
1
41
1
41
1
41
1
41
1
41
1
41
1
41
1
41
1
41
1
41
1
41
1
41
1
41
1
41
1
41
1
41
1
10
1.1560475884162258
20
-2.0294167441777811
30
0.024881100043433774
10
1.1630081490762476
20
-2.0361771096150898
30
0.02488110004343445
10
1.1754571643190712
20
-2.0470337208261493
30
0.024881100043435418
10
1.1897075633605843
20
-2.0552014966339143
30
0.024881100043435581
10
1.1993894366442797
20
-2.0406310359357924
30
0.024881100043435259
10
1.1951147650257461
20
-1.953047291732978
30
0.02488110004343249
10
1.1785677276161504
20
-1.8421315537300158
30
0.024881100043430887
10
1.1549344594430584
20
-1.7356249271040591
30
0.024881100043430925
10
1.1303327439916471
20
-1.6501757850034875
30
0.024881100043432216
10
1.1116747468179982
20
-1.592306175443043
30
0.024881100043433784
10
1.1064779026114673
20
-1.5607669971734643
30
0.024881100043434658
10
1.1227971311479084
20
-1.5479166048056607
30
0.02488110004343445
10
1.1690877793222374
20
-1.5411287752097733
30
0.024881100043433954
10
1.2438529396129701
20
-1.5358171157196243
30
0.024881100043433663
10
1.340655244942444
20
-1.531276954983166
30
0.024881100043433683
10
1.4498760848772945
20
-1.5299750344130625
30
0.024881100043433965
10
1.5392200346444678
20
-1.5344670338457451
30
0.024881100043434242
10
1.6037273267152998
20
-1.5425303375676527
30
0.024881100043434429
10
1.6451517216582514
20
-1.550218665103791
30
0.024881100043434471
10
1.6654686916955066
20
-1.554641134162972
30
0.024881100043434471
0
SPLINE
5
119
100
AcDbEntity
8
0
100
AcDbSpline
70
4
71
5
72
26
73
20
74
0
42
0.000000001
43
0.0000000001
44
0.0000000001
40
0
40
0
40
0
40
0
40
0
40
0
40
0.066666666666666666
40
0.13333333333333333
40
0.20000000000000001
40
0.26666666666666666
40
0.33333333333333331
40
0.39999999999999997
40
0.46666666666666662
40
0.53333333333333333
40
0.59999999999999998
40
0.66666666666666663
40
0.73333333333333328
40
0.79999999999999993
40
0.86666666666666659
40
0.93333333333333324
40
1
40
1
40
1
40
1
40
1
40
1
41
1
41
1
41
1
41
1
41
1
41
1
41
1
41
1
41
1
41
1
41
1
41
1
41
1
41
1
41
1
41
1
41
1
41
1
41
1
41
1
10
0.82189407753239074
20
-2.2518872753646715
30
0.024881100043433774
10
0.81360528109073116
20
-2.2432339461893833
30
0.024881100043433774
10
0.80261040993624733
20
-2.2257965107423114
30
0.024881100043433652
10
0.80286617969440199
20
-2.1992487377746768
30
0.024881100043433052
10
0.83345575878146361
20
-2.1642978707925504
30
0.024881100043432615
10
0.90383776225530288
20
-2.127902168267191
30
0.02488110004343249
10
0.98360569265305098
20
-2.1060795170925735
30
0.02488110004343291
10
1.0511675333744139
20
-2.1043655289902135
30
0.02488110004343352
10
1.0913617773902318
20
-2.1234117015530356
30
0.024881100043434211
10
1.1019767912726677
20
-2.1568602618816453
30
0.024881100043435182
10
1.0889326603080534
20
-2.2017948468354924
30
0.024881100043435762
10
1.0639557603037031
20
-2.2527951737488636
30
0.024881100043435279
10
1.0415059906772677
20
-2.3021658243517367
30
0.02488110004343317
10
1.037620673608463
20
-2.332410198305674
30
0.024881100043430051
10
1.0606036890010535
20
-2.3356148681375601
30
0.024881100043427046
10
1.1134868934469671
20
-2.3110554716825962
30
0.024881100043425603
10
1.1795413381904063
20
-2.2715663794612331
30
0.024881100043426835
10
1.2417402747628892
20
-2.2326047351491427
30
0.024881100043429555
10
1.2886854834410453
20
-2.2027753568293083
30
0.02488110004343223
10
1.3135279057234961
20
-2.1868970614850505
30
0.024881100043433774
0
SPLINE
5
120
100
AcDbEntity
8
0
100
AcDbSpline
70
6
71
5
72
51
73
45
74
0
42
0.000000001
43
0.0000000001
44
0.0000000001
40
0
40
0
40
0
40
0
40
0
40
0
40
0.025000000000000001
40
0.050000000000000003
40
0.075000000000000011
40
0.10000000000000001
40
0.125
40
0.14999999999999999
40
0.17499999999999999
40
0.19999999999999998
40
0.22499999999999998
40
0.24999999999999997
40
0.27499999999999997
40
0.29999999999999999
40
0.32500000000000001
40
0.35000000000000003
40
0.37500000000000006
40
0.40000000000000008
40
0.4250000000000001
40
0.45000000000000012
40
0.47500000000000014
40
0.50000000000000011
40
0.52500000000000013
40
0.55000000000000016
40
0.57500000000000018
40
0.6000000000000002
40
0.62500000000000022
40
0.65000000000000024
40
0.67500000000000027
40
0.70000000000000029
40
0.72500000000000031
40
0.75000000000000033
40
0.77500000000000036
40
0.80000000000000038
40
0.8250000000000004
40
0.85000000000000042
40
0.87500000000000044
40
0.90000000000000047
40
0.92500000000000049
40
0.95000000000000051
40
0.97500000000000053
40
1
40
1
40
1
40
1
40
1
40
1
41
1
41
1
41
1
41
1
41
1
41
1
41
1
41
1
41
1
41
1
41
1
41
1
41
1
41
1
41
1
41
1
41
1
41
1
41
1
41
1
41
1
41
1
41
1
41
1
41
1
41
1
41
1
41
1
41
1
41
1
41
1
41
1
41
1
41
1
41
1
41
1
41
1
41
1
41
1
41
1
41
1
41
1
41
1
41
1
41
1
10
2.1957435150080977
20
-2.5060239816623135
30
0.024881100043433774
10
2.1877799443679575
20
-2.51108040227638
30
0.024881100043433774
10
2.1747422960502338
20
-2.5235342827373648
30
0.024881100043434023
10
2.1667289041155122
20
-2.5481152777544009
30
0.024881100043435307
10
2.1898313328326244
20
-2.5851861305616861
30
0.024881100043435404
10
2.266190521638626
20
-2.6252780505518576
30
0.024881100043435276
10
2.3711460761638641
20
-2.6469742567706978
30
0.024881100043434079
10
2.4792315397163973
20
-2.6440496750532021
30
0.02488110004343326
10
2.5730891245084604
20
-2.6179858046379598
30
0.024881100043432625
10
2.6469654739884407
20
-2.57740022634531
30
0.024881100043432493
10
2.7025428947267454
20
-2.5340675193283242
30
0.024881100043432757
10
2.7464905215439601
20
-2.5000041703297069
30
0.024881100043433281
10
2.7875670919868498
20
-2.4842477873589561
30
0.024881100043433899
10
2.8334262873435163
20
-2.4894417750152753
30
0.024881100043434353
10
2.8891358536841882
20
-2.509415932130572
30
0.024881100043434481
10
2.957605969393716
20
-2.5332792965364157
30
0.024881100043434301
10
3.0390222278534442
20
-2.5487659767974842
30
0.024881100043433947
10
3.1307479426048217
20
-2.5457857171663703
30
0.024881100043433729
10
3.2268181423965383
20
-2.520065486909997
30
0.024881100043433618
10
3.3181666677388604
20
-2.4762748306601394
30
0.024881100043433482
10
3.3946914067392457
20
-2.4244161270252969
30
0.024881100043433416
10
3.4467944332343081
20
-2.3768046327961283
30
0.024881100043433482
10
3.4672174596977117
20
-2.3446912816299124
30
0.024881100043433673
10
3.4525488924556686
20
-2.3353727375248465
30
0.024881100043433968
10
3.4054294407639478
20
-2.3482216444334854
30
0.024881100043434183
10
3.3334060073444198
20
-2.3760442681359426
30
0.024881100043434197
10
3.2465207074261113
20
-2.4084760094698754
30
0.024881100043434051
10
3.1552264298139598
20
-2.4348099337244187
30
0.024881100043433826
10
3.06838756943782
20
-2.4468101860271747
30
0.024881100043433645
10
2.9907096219009088
20
-2.4421597808069859
30
0.024881100043433607
10
2.9224163385034063
20
-2.4244418030556742
30
0.024881100043433673
10
2.8609857679525716
20
-2.4011317314982086
30
0.024881100043433767
10
2.8022589236808089
20
-2.3825126913176256
30
0.024881100043433777
10
2.7418329828396337
20
-2.3795847580198735
30
0.024881100043433739
10
2.6761867679566524
20
-2.4043091897368281
30
0.02488110004343385
10
2.6064472878780505
20
-2.4497588791676352
30
0.024881100043434041
10
2.5358880489718247
20
-2.5002106826515873
30
0.024881100043434211
10
2.468730587132288
20
-2.5373763830225906
30
0.024881100043434121
10
2.4077534892079595
20
-2.5478775880228404
30
0.02488110004343386
10
2.354037022759246
20
-2.5305678140761945
30
0.024881100043432976
10
2.3011927180656047
20
-2.5027734411636113
30
0.024881100043432924
10
2.2565425484885751
20
-2.4896841171313144
30
0.024881100043432254
10
2.2225237198910541
20
-2.4931957590529401
30
0.024881100043433767
10
2.2037070856482379
20
-2.5009675610482471
30
0.024881100043433774
10
2.1957435150080977
20
-2.5060239816623135
30
0.024881100043433774
0
SPLINE
5
121
100
AcDbEntity
8
0
100
AcDbSpline
70
4
71
5
72
16
73
10
74
0
42
0.000000001
43
0.0000000001
44
0.0000000001
40
0
40
0
40
0
40
0
40
0
40
0
40
0.20000000000000001
40
0.40000000000000002
40
0.60000000000000009
40
0.80000000000000004
40
1
40
1
40
1
40
1
40
1
40
1
41
1
41
1
41
1
41
1
41
1
41
1
41
1
41
1
41
1
41
1
10
1.4118075548837195
20
-2.0988636598468537
30
0.024881100043433774
10
1.4033609197205161
20
-2.1115842650067127
30
0.024881100043433774
10
1.404166017758365
20
-2.1344477302577403
30
0.024881100043433805
10
1.4584130957923829
20
-2.1610153433781187
30
0.024881100043434166
10
1.6153414895960525
20
-2.1819850934609715
30
0.024881100043434263
10
1.8569059640865355
20
-2.1841612194364903
30
0.024881100043434155
10
2.001182976640917
20
-2.162339253260634
30
0.024881100043433892
10
2.0374985281939382
20
-2.1282557186414341
30
0.024881100043433794
10
2.0221780449406395
20
-2.0965764201008237
30
0.024881100043433774
10
2.0046249631780335
20
-2.0784956075080649
30
0.024881100043433774
0
SPLINE
5
122
100
AcDbEntity
8
0
100
AcDbSpline
70
4
71
5
72
201
73
195
74
0
42
0.000000001
43
0.0000000001
44
0.0000000001
40
0
40
0
40
0
40
0
40
0
40
0
40
0.005263157894736842
40
0.010526315789473684
40
0.015789473684210527
40
0.021052631578947368
40
0.026315789473684209
40
0.031578947368421054
40
0.036842105263157898
40
0.042105263157894743
40
0.047368421052631587
40
0.052631578947368432
40
0.057894736842105277
40
0.063157894736842121
40
0.068421052631578966
40
0.07368421052631581
40
0.078947368421052655
40
0.0842105263157895
40
0.089473684210526344
40
0.094736842105263189
40
0.10000000000000003
40
0.10526315789473688
40
0.11052631578947372
40
0.11578947368421057
40
0.12105263157894741
40
0.12631578947368424
40
0.13157894736842107
40
0.1368421052631579
40
0.14210526315789473
40
0.14736842105263157
40
0.1526315789473684
40
0.15789473684210523
40
0.16315789473684206
40
0.16842105263157889
40
0.17368421052631572
40
0.17894736842105255
40
0.18421052631578938
40
0.18947368421052621
40
0.19473684210526304
40
0.19999999999999987
40
0.2052631578947367
40
0.21052631578947353
40
0.21578947368421036
40
0.2210526315789472
40
0.22631578947368403
40
0.23157894736842086
40
0.23684210526315769
40
0.24210526315789452
40
0.24736842105263135
40
0.25263157894736821
40
0.25789473684210507
40
0.26315789473684192
40
0.26842105263157878
40
0.27368421052631564
40
0.2789473684210525
40
0.28421052631578936
40
0.28947368421052622
40
0.29473684210526307
40
0.29999999999999993
40
0.30526315789473679
40
0.31052631578947365
40
0.31578947368421051
40
0.32105263157894737
40
0.32631578947368423
40
0.33157894736842108
40
0.33684210526315794
40
0.3421052631578948
40
0.34736842105263166
40
0.35263157894736852
40
0.35789473684210538
40
0.36315789473684223
40
0.36842105263157909
40
0.37368421052631595
40
0.37894736842105281
40
0.38421052631578967
40
0.38947368421052653
40
0.39473684210526339
40
0.40000000000000024
40
0.4052631578947371
40
0.41052631578947396
40
0.41578947368421082
40
0.42105263157894768
40
0.42631578947368454
40
0.4315789473684214
40
0.43684210526315825
40
0.44210526315789511
40
0.44736842105263197
40
0.45263157894736883
40
0.45789473684210569
40
0.46315789473684255
40
0.4684210526315794
40
0.47368421052631626
40
0.47894736842105312
40
0.48421052631578998
40
0.48947368421052684
40
0.4947368421052637
40
0.50000000000000056
40
0.50526315789473741
40
0.51052631578947427
40
0.51578947368421113
40
0.52105263157894799
40
0.52631578947368485
40
0.53157894736842171
40
0.53684210526315856
40
0.54210526315789542
40
0.54736842105263228
40
0.55263157894736914
40
0.557894736842106
40
0.56315789473684286
40
0.56842105263157972
40
0.57368421052631657
40
0.57894736842105343
40
0.58421052631579029
40
0.58947368421052715
40
0.59473684210526401
40
0.60000000000000087
40
0.60526315789473772
40
0.61052631578947458
40
0.61578947368421144
40
0.6210526315789483
40
0.62631578947368516
40
0.63157894736842202
40
0.63684210526315888
40
0.64210526315789573
40
0.64736842105263259
40
0.65263157894736945
40
0.65789473684210631
40
0.66315789473684317
40
0.66842105263158003
40
0.67368421052631688
40
0.67894736842105374
40
0.6842105263157906
40
0.68947368421052746
40
0.69473684210526432
40
0.70000000000000118
40
0.70526315789473804
40
0.71052631578947489
40
0.71578947368421175
40
0.72105263157894861
40
0.72631578947368547
40
0.73157894736842233
40
0.73684210526315919
40
0.74210526315789604
40
0.7473684210526329
40
0.75263157894736976
40
0.75789473684210662
40
0.76315789473684348
40
0.76842105263158034
40
0.7736842105263172
40
0.77894736842105405
40
0.78421052631579091
40
0.78947368421052777
40
0.79473684210526463
40
0.80000000000000149
40
0.80526315789473835
40
0.8105263157894752
40
0.81578947368421206
40
0.82105263157894892
40
0.82631578947368578
40
0.83157894736842264
40
0.8368421052631595
40
0.84210526315789636
40
0.84736842105263321
40
0.85263157894737007
40
0.85789473684210693
40
0.86315789473684379
40
0.86842105263158065
40
0.87368421052631751
40
0.87894736842105436
40
0.88421052631579122
40
0.88947368421052808
40
0.89473684210526494
40
0.9000000000000018
40
0.90526315789473866
40
0.91052631578947552
40
0.91578947368421237
40
0.92105263157894923
40
0.92631578947368609
40
0.93157894736842295
40
0.93684210526315981
40
0.94210526315789667
40
0.94736842105263352
40
0.95263157894737038
40
0.95789473684210724
40
0.9631578947368441
40
0.96842105263158096
40
0.97368421052631782
40
0.97894736842105468
40
0.98421052631579153
40
0.98947368421052839
40
0.99473684210526525
40
1
40
1
40
1
40
1
40
1
40
1
41
1
41
1
41
1
41
1
41
1
41
1
41
1
41
1
41
1
41
1
41
1
41
1
41
1
41
1
41
1
41
1
41
1
41
1
41
1
41
1
41
1
41
1
41
1
41
1
41
1
41
1
41
1
41
1
41
1
41
1
41
1
41
1
41
1
41
1
41
1
41
1
41
1
41
1
41
1
41
1
41
1
41
1
41
1
41
1
41
1
41
1
41
1
41
1
41
1
41
1
41
1
41
1
41
1
41
1
41
1
41
1
41
1
41
1
41
1
41
1
41
1
41
1
41
1
41
1
41
1
41
1
41
1
41
1
41
1
41
1
41
1
41
1
41
1
41
1
41
1
41
1
41
1
41
1
41
1
41
1
41
1
41
1
41
1
41
1
41
1
41
1
41
1
41
1
41
1
41
1
41
1
41
1
41
1
41
1
41
1
41
1
41
1
41
1
41
1
41
1
41
1
41
1
41
1
41
1
41
1
41
1
41
1
41
1
41
1
41
1
41
1
41
1
41
1
41
1
41
1
41
1
41
1
41
1
41
1
41
1
41
1
41
1
41
1
41
1
41
1
41
1
41
1
41
1
41
1
41
1
41
1
41
1
41
1
41
1
41
1
41
1
41
1
41
1
41
1
41
1
41
1
41
1
41
1
41
1
41
1
41
1
41
1
41
1
41
1
41
1
41
1
41
1
41
1
41
1
41
1
41
1
41
1
41
1
41
1
41
1
41
1
41
1
41
1
41
1
41
1
41
1
41
1
41
1
41
1
41
1
41
1
41
1
41
1
41
1
41
1
41
1
41
1
41
1
41
1
41
1
41
1
41
1
41
1
41
1
41
1
41
1
41
1
41
1
41
1
41
1
41
1
41
1
41
1
41
1
41
1
10
1.9985300534428987
20
-4.1559656973328067
30
0.024881100043433774
10
2.0004994732697194
20
-4.152978041306608
30
0.024881100043433774
10
2.009915993753205
20
-4.1382918615270565
30
0.024881100043477707
10
2.0404269123773164
20
-4.0901507224260563
30
0.024881100043674394
10
2.0926518089530282
20
-3.9935593524954829
30
0.024881100043964936
10
2.0887831132784722
20
-3.9040044659151145
30
0.024881100043503201
10
1.9748080434664939
20
-3.897755908674827
30
0.024881100042212632
10
1.8116601844173961
20
-3.9370775257646882
30
0.024881100041381995
10
1.6914073577875475
20
-3.9531082743267865
30
0.024881100042176772
10
1.6913899819445626
20
-3.887468192597717
30
0.024881100045095392
10
1.8030072308014198
20
-3.7552075079204355
30
0.024881100048169531
10
1.9452124550994887
20
-3.6222836318015927
30
0.0248811000478679
10
2.0267759876587945
20
-3.5464436233529044
30
0.024881100043344106
10
1.9910254712084365
20
-3.5274436571726837
30
0.024881100041045389
10
1.8764820877166397
20
-3.4530875112498913
30
0.024881100057286724
10
1.7314726826229161
20
-3.3263730063204444
30
0.024881100075805598
10
1.611375379326603
20
-3.1854742711716084
30
0.024881100076604549
10
1.5610552554256016
20
-3.0880991610811455
30
0.02488110004378058
10
1.6024855282264305
20
-3.0710912710253346
30
0.024881099993330359
10
1.7215480306294186
20
-3.1188247764246704
30
0.024881099958559735
10
1.8842456509987053
20
-3.1882554195509845
30
0.024881099971851051
10
2.0496349724721599
20
-3.2329208478644924
30
0.024881100054528087
10
2.1865745249308608
20
-3.2331621396235173
30
0.024881100233437307
10
2.2775881895247951
20
-3.2028009128857335
30
0.024881100423726474
10
2.3103833248579115
20
-3.1651275174387039
30
0.024881100502011522
10
2.2969320108591447
20
-3.1441136824754659
30
0.024881100419326833
10
2.2239898675904364
20
-3.1336721530443783
30
0.024881100238990463
10
2.0569002265111465
20
-3.1092807734906618
30
0.024881100051803339
10
1.8053434071835712
20
-3.0544205709148882
30
0.024881099933842101
10
1.5362118299681371
20
-2.9759639269651452
30
0.024881099895529332
10
1.2955944620366675
20
-2.8858419834980724
30
0.024881099921920353
10
1.1211601657248706
20
-2.8007622143850508
30
0.024881099978674878
10
1.0229855844880016
20
-2.7361793516831905
30
0.024881100030046385
10
0.98451685714797177
20
-2.7030357820781505
30
0.02488110004970796
10
0.93869164607572886
20
-2.7024186949450169
30
0.024881100039603241
10
0.79110727739613018
20
-2.7230348116170791
30
0.024881100034576536
10
0.58376858289556954
20
-2.757244748507178
30
0.024881100036823051
10
0.39217320333967731
20
-2.7867969241795318
30
0.024881100043058289
10
0.301592710941679
20
-2.7911429360003774
30
0.024881100044170747
10
0.33566357042225509
20
-2.7144948988489528
30
0.024881100042220584
10
0.44902334444409475
20
-2.5416553058922955
30
0.024881100042497807
10
0.57874461606042749
20
-2.3281735014095628
30
0.024881100043578307
10
0.66071661501803647
20
-2.138911071845484
30
0.024881100044374764
10
0.65130567886420287
20
-2.0295363814523339
30
0.024881100043063657
10
0.56490914682287874
20
-1.9912825873532796
30
0.024881100043347256
10
0.45937827192304176
20
-1.9576334686438384
30
0.024881100047865781
10
0.35160633068653568
20
-1.900845172674287
30
0.024881100050026236
10
0.25262793437239273
20
-1.8055480018481167
30
0.024881100043774057
10
0.16482049603996102
20
-1.6827970356290625
30
0.024881100037307657
10
0.091532933654408635
20
-1.5664954456634972
30
0.024881100040048575
10
0.046399850231375002
20
-1.4929584738644146
30
0.02488110004420141
10
0.060789625394023279
20
-1.4837796562148582
30
0.024881100043366116
10
0.21204400309523991
20
-1.5185623011068445
30
0.024881100041892125
10
0.45550211002288937
20
-1.5678640638926566
30
0.024881100041585738
10
0.69608939539457027
20
-1.6005283509248609
30
0.024881100042417427
10
0.8370519156394467
20
-1.5924728613735655
30
0.024881100043489
10
0.8222726592889662
20
-1.5321372570713572
30
0.024881100043655381
10
0.71848460653969559
20
-1.4352027625251926
30
0.024881100042476761
10
0.57186573822872899
20
-1.3099361234155533
30
0.024881100040258595
10
0.41175045173576891
20
-1.1598684553304988
30
0.024881100037746354
10
0.25521437961165749
20
-0.98574806983331786
30
0.024881100035992525
10
0.10986236809880448
20
-0.78742194634060669
30
0.024881100036099234
10
-0.022465977100859916
20
-0.56586728391154195
30
0.024881100039134817
10
-0.14259142618751044
20
-0.32491236049769212
30
0.024881100045690715
10
-0.25013796495357604
20
-0.073697550318287786
30
0.024881100056361075
10
-0.34180534519013739
20
0.17352366832200899
30
0.024881100066837455
10
-0.41228316334543086
20
0.40027625482139484
30
0.024881100071747268
10
-0.4545710390819182
20
0.59000247101720338
30
0.024881100066813593
10
-0.46040784631226556
20
0.72852390843401549
30
0.024881100053489015
10
-0.42095516654868304
20
0.8063297213490338
30
0.024881100038303672
10
-0.32666611759603098
20
0.82102335176563568
30
0.024881100044402447
10
-0.16929505534541409
20
0.77950774959393654
30
0.024881100092457423
10
0.053900621386317557
20
0.69486995239221172
30
0.02488110016792993
10
0.33920768594759237
20
0.58380562389127744
30
0.024881100245694242
10
0.67559114759088645
20
0.46406676415901343
30
0.024881100293656241
10
1.0411518535102446
20
0.35146704518744964
30
0.024881100288732669
10
1.4068256221221773
20
0.25807568409366793
30
0.024881100219293319
10
1.7228167779128754
20
0.18758062063201464
30
0.024881100112537718
10
1.9453462011629479
20
0.13725773928635873
30
0.024881100006732979
10
1.968970186008757
20
0.084478344225246166
30
0.024881100051270869
10
1.7947709896805091
20
0.011519895165223367
30
0.024881100288241691
10
1.7337457894321906
20
-0.05278097207219478
30
0.024881100356732622
10
1.8280606774206802
20
-0.094551465019037939
30
0.024881100255065944
10
1.9770256179347596
20
-0.11518111623038482
30
0.024881100152091409
10
2.1685640208395709
20
-0.11687965093506503
30
0.024881100074561496
10
2.3771035734572967
20
-0.10580762218010141
30
0.024881100043583265
10
2.5881278484028529
20
-0.088507796707498324
30
0.024881100040868527
10
2.7695195892364235
20
-0.071578310965613443
30
0.02488110004590122
10
2.8617866138351307
20
-0.059233441483220434
30
0.024881100046079092
10
2.8855130215660769
20
-0.042214195666836096
30
0.024881100043451464
10
2.8564960915347362
20
-0.017183358183153911
30
0.024881100041982941
10
2.7690456080106127
20
0.0075964642015313305
30
0.024881100042147657
10
2.6424477938176163
20
0.027599460229912502
30
0.024881100043380625
10
2.5004101224024637
20
0.036149083301561677
30
0.024881100044353323
10
2.356834387863985
20
0.03050892850591623
30
0.024881100044402277
10
2.203561958885969
20
0.01581926812209879
30
0.02488110004389598
10
2.0541114480165383
20
0.0050308800961005812
30
0.024881100043387665
10
1.9334674900452544
20
0.01215896147758742
30
0.024881100043424975
10
1.971227685437924
20
0.067017978369679182
30
0.024881100043504654
10
2.170758964259476
20
0.15526735328881822
30
0.024881100043386895
10
2.4163913375068109
20
0.23504365842344124
30
0.024881100043299048
10
2.5835575308322092
20
0.27963519482185956
30
0.024881100043390687
10
2.592876458559247
20
0.30024575861719943
30
0.024881100043566584
10
2.5234338774654828
20
0.40292792896034685
30
0.024881100042948835
10
2.4218736041920597
20
0.58990877212291259
30
0.024881100042095081
10
2.3245565147856255
20
0.81433175499557642
30
0.024881100041961094
10
2.2626990373597495
20
1.0065675398519744
30
0.024881100042814713
10
2.2634011476372482
20
1.1028644124257312
30
0.024881100044236094
10
2.3755299295285326
20
1.0916872298258398
30
0.024881100042129511
10
2.6066421890269047
20
0.99005959342894989
30
0.024881100035582655
10
2.9191626589545185
20
0.82037164032750232
30
0.024881100027396151
10
3.2559350543908394
20
0.61421465032609557
30
0.024881100021498688
10
3.5551703582865848
20
0.40508261938768869
30
0.024881100021315071
10
3.7661620208849063
20
0.22590372220417229
30
0.024881100028518816
10
3.8734520369339256
20
0.10435793690587661
30
0.024881100039776012
10
3.8968843157381774
20
0.05946227202287762
30
0.024881100048652766
10
3.9517037816309397
20
0.096850536143911273
30
0.024881100034868538
10
4.1179898538719275
20
0.20698946774589982
30
0.02488109999374831
10
4.4043001436639919
20
0.37016503127073086
30
0.024881099939239201
10
4.7835916157724734
20
0.56012669409792248
30
0.024881099891660017
10
5.1991433662400608
20
0.74810715115585391
30
0.024881099872467453
10
5.5839574769626283
20
0.90703071480665576
30
0.024881099894358952
10
5.8728974049538758
20
1.0148301613785864
30
0.024881099957223998
10
6.0213431365173369
20
1.060031702840222
30
0.024881100032643624
10
6.0131085654645711
20
1.0419541248757702
30
0.024881100074259935
10
5.8928342821863966
20
0.98432445444037631
30
0.024881099963702732
10
5.7052580570662554
20
0.89536046289498417
30
0.024881099728722496
10
5.4864894704349068
20
0.7714794560571504
30
0.024881099515611186
10
5.2690396236627519
20
0.61065676325754303
30
0.024881099429317002
10
5.0784285250518417
20
0.41384387483995122
30
0.024881099635127302
10
4.9385327549903115
20
0.20900198820904786
30
0.02488109987638823
10
4.8612377940610383
20
0.024586978518762126
30
0.024881100342509628
10
4.8724536482901222
20
-0.014391173579415217
30
0.024881099301592439
10
4.9054034365738675
20
-0.030044841352133797
30
0.02488110089579704
10
4.9319494947389027
20
-0.017288644913080107
30
0.024881098449017123
10
4.9821524554232415
20
0.062106043391966952
30
0.024881095746023547
10
5.0890366060964389
20
0.1955083016982942
30
0.024881100242783311
10
5.2698159658681956
20
0.36576330209938024
30
0.024881103204388542
10
5.4949397358313607
20
0.54498182405513085
30
0.02488107616711557
10
5.730741189486487
20
0.71279199874185417
30
0.024881023593501233
10
5.9404420212803988
20
0.85079628931609808
30
0.024880959971626957
10
6.0938015074927634
20
0.945406966457218
30
0.024880908036764793
10
6.1790510874633426
20
0.98696096772511699
30
0.024880887335088479
10
6.2004631303986093
20
0.97088361917548538
30
0.024880909352647168
10
6.2143896750901106
20
0.89688447207470523
30
0.024880963969602984
10
6.2451036019542094
20
0.77253372651152963
30
0.024881028154023703
10
6.2707018318746046
20
0.61098190639292449
30
0.024881080209965375
10
6.2646763510839536
20
0.42682871602350886
30
0.024881104769919178
10
6.2110520328202954
20
0.23312489715195012
30
0.024881099878200356
10
6.1417898346600923
20
0.036924739915646203
30
0.024881087846828444
10
6.0642938944232005
20
-0.15908746363537485
30
0.024881078959172739
10
5.9754995899540342
20
-0.35464171271658695
30
0.024881077587322196
10
5.8648065819875193
20
-0.55031413210973568
30
0.024881082854665292
10
5.7209551249152275
20
-0.74591069120916986
30
0.024881091203155098
10
5.5374425376597234
20
-0.93858444482259196
30
0.024881098302113172
10
5.3180909575406394
20
-1.1217342747038699
30
0.024881100900777435
10
5.0836456082834012
20
-1.2820221865673196
30
0.024881099488986903
10
4.8756856966242843
20
-1.400665398541862
30
0.024881098861743868
10
4.7310344777949069
20
-1.4717891173185818
30
0.024881099223609641
10
4.6789474508076667
20
-1.4956844331685502
30
0.024881100064239166
10
4.7323456409984361
20
-1.4803761267601636
30
0.024881100118311399
10
4.8812165592354733
20
-1.4366301989552646
30
0.024881099842216182
10
5.0855001361374192
20
-1.3864243284377478
30
0.024881099787480061
10
5.2904835476925776
20
-1.3577504176028337
30
0.024881099895549923
10
5.4407323816850353
20
-1.3749233422486371
30
0.024881100049974424
10
5.4944006001754575
20
-1.4518199302129622
30
0.024881100055478101
10
5.4377492788870985
20
-1.5813467700742259
30
0.024881100006628416
10
5.2989709854371769
20
-1.7340221113003831
30
0.024881099994416667
10
5.1295707099453338
20
-1.8736865296724381
30
0.024881100012892701
10
4.9898082626665019
20
-1.9773520596326777
30
0.024881100041817525
10
4.9293623558210715
20
-2.0381036066844751
30
0.024881100046848622
10
4.9776200143967859
20
-2.1111136863336979
30
0.024881100037746837
10
5.1077148912952035
20
-2.2370855931413902
30
0.024881100035854954
10
5.2511461886229096
20
-2.3954014603399827
30
0.024881100039042172
10
5.3332581014668925
20
-2.5501559813641537
30
0.024881100043829815
10
5.2979327199183501
20
-2.6593575759112813
30
0.024881100043679216
10
5.1433789530779848
20
-2.7025816555840674
30
0.024881100042280446
10
4.9329078696257058
20
-2.6918995828338685
30
0.024881100042115377
10
4.7466877941360188
20
-2.6566593612120428
30
0.024881100042830416
10
4.6371639102183151
20
-2.6316186366723242
30
0.024881100043570102
10
4.5977167931744116
20
-2.6451242746076615
30
0.024881100043421246
10
4.4854103530140339
20
-2.7040500896639887
30
0.02488110004316443
10
4.2816720388627107
20
-2.7926358170554404
30
0.024881100043071327
10
4.0299694253003953
20
-2.8859226703312486
30
0.024881100043178339
10
3.8059712897373794
20
-2.9596712482290988
30
0.024881100043360284
10
3.6783132298982633
20
-3.0008166152379179
30
0.024881100043463215
10
3.6694117105015081
20
-3.0197259947093005
30
0.024881100043422654
10
3.7231701821615819
20
-3.0578068685852426
30
0.024881100043370793
10
3.8150097779961585
20
-3.1382990719691377
30
0.024881100043343238
10
3.9252491646050824
20
-3.2789249702638599
30
0.02488110004335627
10
4.0457570421565912
20
-3.4893256735008786
30
0.024881100043393986
10
4.1477401193349133
20
-3.717560308451759
30
0.024881100043424111
10
4.2276287002222572
20
-3.9231176748511594
30
0.024881100043434936
10
4.2825218808202425
20
-4.0754381651617511
30
0.024881100043435304
10
4.3103779337347072
20
-4.155418545449546
30
0.024881100043433774
0
SPLINE
5
123
100
AcDbEntity
8
0
100
AcDbSpline
70
4
71
5
72
16
73
10
74
0
42
0.000000001
43
0.0000000001
44
0.0000000001
40
0
40
0
40
0
40
0
40
0
40
0
40
0.20000000000000001
40
0.40000000000000002
40
0.60000000000000009
40
0.80000000000000004
40
1
40
1
40
1
40
1
40
1
40
1
41
1
41
1
41
1
41
1
41
1
41
1
41
1
41
1
41
1
41
1
10
4.1088035379275292
20
-1.9506765855241459
30
0.024881100043433774
10
4.0720808803871513
20
-1.9539396778431002
30
0.024881100043432199
10
4.0001585774711215
20
-1.9604526691626656
30
0.024881100043429687
10
3.8968422386018369
20
-1.9701825928278516
30
0.024881100043427942
10
3.7688561066477257
20
-1.9830711990893792
30
0.024881100043428205
10
3.633120463891899
20
-1.9989719134975421
30
0.024881100043430734
10
3.5561522933301131
20
-2.0114185691170499
30
0.024881100043432722
10
3.5251466300848362
20
-2.0205220908515336
30
0.024881100043433579
10
3.5182523480252694
20
-2.0264717673152854
30
0.024881100043433774
10
3.518252348025269
20
-2.0294167441777811
30
0.024881100043433774
0
ENDSEC
0
SECTION
2
OBJECTS
0
DICTIONARY
5
C
100
AcDbDictionary
3
ACAD_GROUP
350
D
3
ACAD_MLINESTYLE
350
17
0
DICTIONARY
5
D
100
AcDbDictionary
0
DICTIONARY
5
1A
330
C
100
AcDbDictionary
0
DICTIONARY
5
17
100
AcDbDictionary
0
ENDSEC
0
EOF
