0
SECTION
2
HEADER
9
$INSUNITS
70
1
9
$ACADVER
1
AC1014
9
$HANDSEED
5
FFFF
0
ENDSEC
0
SECTION
2
TABLES
0
TABLE
2
VPORT
5
8
100
AcDbSymbolTable
0
ENDTAB
0
TABLE
2
LTYPE
5
5
100
AcDbSymbolTable
0
LTYPE
5
14
100
AcDbSymbolTableRecord
100
AcDbLinetypeTableRecord
2
BYBLOCK
70
0
0
LTYPE
5
15
100
AcDbSymbolTableRecord
100
AcDbLinetypeTableRecord
2
BYLAYER
70
0
0
ENDTAB
0
TABLE
2
LAYER
5
2
100
AcDbSymbolTable
70
2
0
LAYER
5
50
100
AcDbSymbolTableRecord
100
AcDbLayerTableRecord
2
0
70
0
6
CONTINUOUS
0
ENDTAB
0
TABLE
2
STYLE
5
3
100
AcDbSymbolTable
70
1
0
STYLE
5
11
100
AcDbSymbolTableRecord
100
AcDbTextStyleTableRecord
2
STANDARD
70
0
0
ENDTAB
0
TABLE
2
VIEW
5
6
100
AcDbSymbolTable
70
0
0
ENDTAB
0
TABLE
2
UCS
5
7
100
AcDbSymbolTable
70
0
0
ENDTAB
0
TABLE
2
APPID
5
9
100
AcDbSymbolTable
70
2
0
APPID
5
12
100
AcDbSymbolTableRecord
100
AcDbRegAppTableRecord
2
ACAD
70
0
0
ENDTAB
0
TABLE
2
DIMSTYLE
5
A
100
AcDbSymbolTable
70
1
0
ENDTAB
0
TABLE
2
BLOCK_RECORD
5
1
100
AcDbSymbolTable
70
1
0
BLOCK_RECORD
5
1F
100
AcDbSymbolTableRecord
100
AcDbBlockTableRecord
2
*MODEL_SPACE
0
BLOCK_RECORD
5
1B
100
AcDbSymbolTableRecord
100
AcDbBlockTableRecord
2
*PAPER_SPACE
0
ENDTAB
0
ENDSEC
0
SECTION
2
BLOCKS
0
BLOCK
5
20
100
AcDbEntity
100
AcDbBlockBegin
2
*MODEL_SPACE
0
ENDBLK
5
21
100
AcDbEntity
100
AcDbBlockEnd
0
BLOCK
5
1C
100
AcDbEntity
100
AcDbBlockBegin
2
*PAPER_SPACE
0
ENDBLK
5
1D
100
AcDbEntity
100
AcDbBlockEnd
0
ENDSEC
0
SECTION
2
ENTITIES
0
LWPOLYLINE
5
100
100
AcDbEntity
8
0
100
AcDbPolyline
90
40
70
1
43
0.0
10
0.11499998519563749
20
1.3249999839871183
10
0.42999996397233592
20
1.3249999839871183
10
0.50999998042198591
20
1.2299999851352117
10
0.53499998011985606
20
1.2299999851352117
10
0.53499998011985606
20
1.2599999847726557
10
0.84499998978801127
20
1.2599999847726557
10
0.84499998978801127
20
1.2299999851352117
10
0.86999998948588142
20
1.2299999851352117
10
0.95000000593553136
20
1.3249999839871183
10
1.2649999847122297
20
1.3249999839871183
10
1.3199999840475443
20
1.2667646905732561
10
1.3199999840475443
20
0.94999998851906586
10
1.2299999851352117
20
0.8649999895463073
10
1.2299999851352117
20
0.83499998990886315
10
1.2599999847726557
20
0.83499998990886315
10
1.2599999847726557
20
0.54499999341356942
10
1.2299999851352117
20
0.54499999341356942
10
1.2299999851352117
20
0.51499999377612515
10
1.319999984047544
20
0.42999999480336648
10
1.3199999840475443
20
0.11499999861020271
10
1.2649999847122297
20
0.05499999933531434
10
0.95000000593553136
20
0.05499999933531434
10
0.86999998948588142
20
0.14499999824764689
10
0.84500000527949892
20
0.14499999824764689
10
0.84500000527949892
20
0.11999999854977675
10
0.5349999646283683
20
0.11999999854977675
10
0.5349999646283683
20
0.14499999824764689
10
0.50999998042198591
20
0.14499999824764689
10
0.42999996397233592
20
0.05499999933531434
10
0.11499998519563749
20
0.05499999933531434
10
0.059999985860323145
20
0.11499999861020271
10
0.059999985860323318
20
0.42999999480336648
10
0.14999998477265572
20
0.51499999377612515
10
0.14999998477265572
20
0.54499999341356942
10
0.11999998513521153
20
0.54499999341356942
10
0.11999998513521153
20
0.83499998990886315
10
0.14999998477265572
20
0.83499998990886315
10
0.14999998477265572
20
0.8649999895463073
10
0.059999985860323145
20
0.94999998851906586
10
0.059999985860323145
20
1.2667646905732561
0
LINE
5
101
100
AcDbEntity
8
0
100
AcDbLine
10
0.45200349485805041
20
0.6590538106818713
30
0
11
0.29428164653764938
21
0.6590538106818713
31
0
0
LWPOLYLINE
5
102
100
AcDbEntity
8
0
100
AcDbPolyline
90
4
70
1
43
0.0
10
0.41499997999900418
20
0.22499998712926852
10
0.50499997891133674
20
0.31999998598117513
10
0.50499997891133674
20
0.15499998797523207
10
0.42999997981772631
20
0.069999989002473548
0
SPLINE
5
103
100
AcDbEntity
8
0
100
AcDbSpline
70
4
71
5
72
16
73
10
74
0
42
0.000000001
43
0.0000000001
44
0.0000000001
40
0
40
0
40
0
40
0
40
0
40
0
40
0.20000000000000001
40
0.40000000000000002
40
0.60000000000000009
40
0.80000000000000004
40
1
40
1
40
1
40
1
40
1
40
1
41
1
41
1
41
1
41
1
41
1
41
1
41
1
41
1
41
1
41
1
10
0.32999998954630733
20
0.87999998936502943
30
0
10
0.33396558089234551
20
0.8859483942323807
30
0
10
0.34277262266046127
20
0.89845003835315274
30
0
10
0.35860835254248485
20
0.91901498077975974
30
0
10
0.38420867752868548
20
0.94921826536845144
30
0
10
0.42090257440062639
20
0.98764329837068976
30
0
10
0.45214434189065994
20
1.0151579574556715
30
0
10
0.47597601100297227
20
1.0319121571287933
30
0
10
0.49197369369025251
20
1.0409868513958438
30
0
10
0.49999998749182439
20
1.0449999873709725
30
0
0
LINE
5
104
100
AcDbEntity
8
0
100
AcDbLine
10
0.70623019164052525
20
0.30825953817695056
30
0
11
0.70623019164052525
21
0.45054941384521408
31
0
0
LINE
5
105
100
AcDbEntity
8
0
100
AcDbLine
10
0.45058814275415515
20
0.70679181141632952
30
0
11
0.29354102114155722
21
0.70679181141632952
31
0
0
SPLINE
5
106
100
AcDbEntity
8
0
100
AcDbSpline
70
4
71
5
72
16
73
10
74
0
42
0.000000001
43
0.0000000001
44
0.0000000001
40
0
40
0
40
0
40
0
40
0
40
0
40
0.20000000000000001
40
0.40000000000000002
40
0.60000000000000009
40
0.80000000000000004
40
1
40
1
40
1
40
1
40
1
40
1
41
1
41
1
41
1
41
1
41
1
41
1
41
1
41
1
41
1
41
1
10
0.21999998235561699
20
0.40999998489350764
30
0
10
0.2240221716813047
20
0.40195560624213234
30
0
10
0.23322523682918603
20
0.38563009874181797
30
0
10
0.25050260253485079
20
0.36043263010492005
30
0
10
0.2793841370785608
20
0.32596315848162749
30
0
10
0.32096315370798073
20
0.28438414185220645
30
0
10
0.35543262533127001
20
0.25550260730849778
30
0
10
0.38063009396816727
20
0.23822524160283701
30
0
10
0.39695560146848091
20
0.22902217645495618
30
0
10
0.40499998011985611
20
0.22499998712926852
30
0
0
SPLINE
5
107
100
AcDbEntity
8
0
100
AcDbSpline
70
4
71
5
72
16
73
10
74
0
42
0.000000001
43
0.0000000001
44
0.0000000001
40
0
40
0
40
0
40
0
40
0
40
0
40
0.20000000000000001
40
0.40000000000000002
40
0.60000000000000009
40
0.80000000000000004
40
1
40
1
40
1
40
1
40
1
40
1
41
1
41
1
41
1
41
1
41
1
41
1
41
1
41
1
41
1
41
1
10
0.33499999595146007
20
0.51499999377612515
30
0
10
0.34097016463443186
20
0.50504971263783904
30
0
10
0.35297854752557062
20
0.48599339658797841
30
0
10
0.3711953516228344
20
0.45993934322882146
30
0
10
0.3960761284708883
20
0.42952908574993132
30
0
10
0.42952908574992021
20
0.39607612847089474
30
0
10
0.45993934322881169
20
0.37119535162283429
30
0
10
0.4859933965879768
20
0.35297854752557084
30
0
10
0.50504971263783893
20
0.3409701646344318
30
0
10
0.51499999377612515
20
0.33499999595146007
30
0
0
LINE
5
108
100
AcDbEntity
8
0
100
AcDbLine
10
0.29364398617365445
20
0.67059753710617653
30
0
11
0.45078556198561059
21
0.67059753710617653
31
0
0
SPLINE
5
109
100
AcDbEntity
8
0
100
AcDbSpline
70
4
71
5
72
16
73
10
74
0
42
0.000000001
43
0.0000000001
44
0.0000000001
40
0
40
0
40
0
40
0
40
0
40
0
40
0.20000000000000001
40
0.40000000000000002
40
0.60000000000000009
40
0.80000000000000004
40
1
40
1
40
1
40
1
40
1
40
1
41
1
41
1
41
1
41
1
41
1
41
1
41
1
41
1
41
1
41
1
10
0.51499999377612515
20
1.0449999873709725
30
0
10
0.50504971263783904
20
1.0390298186880009
30
0
10
0.48599339658797841
20
1.0270214357968639
30
0
10
0.45993934322882135
20
1.0088046316996173
30
0
10
0.42952908574993082
20
0.98392385485156619
30
0
10
0.39607612847089413
20
0.95047089757252678
30
0
10
0.37119535162283379
20
0.92006064009362387
30
0
10
0.35297854752557062
20
0.89400658673445599
30
0
10
0.34097016463443175
20
0.87495027068459374
30
0
10
0.33499999595146007
20
0.8649999895463073
30
0
0
SPLINE
5
110
100
AcDbEntity
8
0
100
AcDbSpline
70
4
71
5
72
16
73
10
74
0
42
0.000000001
43
0.0000000001
44
0.0000000001
40
0
40
0
40
0
40
0
40
0
40
0
40
0.20000000000000001
40
0.40000000000000002
40
0.60000000000000009
40
0.80000000000000004
40
1
40
1
40
1
40
1
40
1
40
1
41
1
41
1
41
1
41
1
41
1
41
1
41
1
41
1
41
1
41
1
10
0.21999999087567865
20
0.964999988337788
30
0
10
0.22402218020136633
20
0.97304436698916341
30
0
10
0.23322524534924749
20
0.98936987448947644
30
0
10
0.2505026110549109
20
1.0145673431263755
30
0
10
0.27938414559862013
20
1.0490368147496636
30
0
10
0.32096316222804067
20
1.090615831379083
30
0
10
0.35543263385133089
20
1.1194973659227934
30
0
10
0.38063010248822882
20
1.1367747316284578
30
0
10
0.39695560998854257
20
1.1459777967763396
30
0
10
0.40499998863991776
20
1.1499999861020271
30
0
0
LINE
5
111
100
AcDbEntity
8
0
100
AcDbLine
10
0.53499999353442129
20
0.26999999673699765
30
0
11
0.58499999293016158
21
0.319999996132738
31
0
0
LINE
5
112
100
AcDbEntity
8
0
100
AcDbLine
10
0.40499998011985611
20
0.22499998712926852
30
0
11
0.41999997993857824
21
0.064999989062899527
31
0
0
LINE
5
113
100
AcDbEntity
8
0
100
AcDbLine
10
0.41999997993857824
20
0.064999989062899527
30
0
11
0.11999998356413637
21
0.064999989062899527
31
0
0
LINE
5
114
100
AcDbEntity
8
0
100
AcDbLine
10
0.29425776289190136
20
0.72059439857891594
30
0
11
0.4519580187380785
21
0.72059439857891594
31
0
0
SPLINE
5
115
100
AcDbEntity
8
0
100
AcDbSpline
70
4
71
5
72
16
73
10
74
0
42
0.000000001
43
0.0000000001
44
0.0000000001
40
0
40
0
40
0
40
0
40
0
40
0
40
0.20000000000000001
40
0.40000000000000002
40
0.60000000000000009
40
0.80000000000000004
40
1
40
1
40
1
40
1
40
1
40
1
41
1
41
1
41
1
41
1
41
1
41
1
41
1
41
1
41
1
41
1
10
0.40999998857949183
20
1.1449999861624531
30
0
10
0.4019556099281088
20
1.1409777968367616
30
0
10
0.38563010242778406
20
1.1317747316888755
30
0
10
0.36043263379088614
20
1.1144973659832194
30
0
10
0.32596316216760329
20
1.0856158314395217
30
0
10
0.28438414553819841
20
1.0440368148101167
30
0
10
0.25550261099449456
20
1.0095673431868277
30
0
10
0.23822524528883035
20
0.98436987454992253
30
0
10
0.22902218014094394
20
0.96804436704959707
30
0
10
0.22499999081525265
20
0.95999998839821399
30
0
0
SPLINE
5
116
100
AcDbEntity
8
0
100
AcDbSpline
70
4
71
5
72
16
73
10
74
0
42
0.000000001
43
0.0000000001
44
0.0000000001
40
0
40
0
40
0
40
0
40
0
40
0
40
0.20000000000000001
40
0.40000000000000002
40
0.60000000000000009
40
0.80000000000000004
40
1
40
1
40
1
40
1
40
1
40
1
41
1
41
1
41
1
41
1
41
1
41
1
41
1
41
1
41
1
41
1
10
0.32999998102624567
20
0.4949999838662662
30
0
10
0.33396557237228386
20
0.48905157899891494
30
0
10
0.34277261414039883
20
0.47654993487814218
30
0
10
0.35860834402241892
20
0.45598499245154001
30
0
10
0.38420866900861755
20
0.42578170786284686
30
0
10
0.42090256588055941
20
0.38735667486060721
30
0
10
0.45214433337059617
20
0.35984201577562303
30
0
10
0.47597600248291044
20
0.34308781610250194
30
0
10
0.49197368517019086
20
0.33401312183545168
30
0
10
0.49999997897176274
20
0.32999998586032314
30
0
0
LINE
5
117
100
AcDbEntity
8
0
100
AcDbLine
10
0.41999998845863989
20
1.309999984168396
30
0
11
0.11999999208419801
21
1.309999984168396
31
0
0
LINE
5
118
100
AcDbEntity
8
0
100
AcDbLine
10
0.51499999377612515
20
0.159999998066369
30
0
11
0.53499999353442129
21
0.159999998066369
31
0
0
LINE
5
119
100
AcDbEntity
8
0
100
AcDbLine
10
0.53499999353442129
20
0.159999998066369
30
0
11
0.53499999353442129
21
0.26999999673699765
31
0
0
LINE
5
120
100
AcDbEntity
8
0
100
AcDbLine
10
1.1099999865854349
20
0.54999999335314342
30
0
11
1.0749999870084166
21
0.59063772219077415
31
0
0
LINE
5
121
100
AcDbEntity
8
0
100
AcDbLine
10
0.83999998984843716
20
1.2199999980663689
30
0
11
0.83999998984843716
21
1.1099999993957403
31
0
0
LINE
5
122
100
AcDbEntity
8
0
100
AcDbLine
10
1.1549999860416011
20
0.95999998839821399
30
0
11
1.0499999873105466
21
0.87999998936502943
31
0
0
LINE
5
123
100
AcDbEntity
8
0
100
AcDbLine
10
1.2599999847726557
20
1.309999984168396
30
0
11
1.309999984168396
21
1.2549999848330817
31
0
0
LWPOLYLINE
5
124
100
AcDbEntity
8
0
100
AcDbPolyline
90
4
70
1
43
0.0
10
1.2999999749836488
20
0.42499998471222977
10
1.2249999758900385
20
0.49999998380584021
10
1.0599999778840954
20
0.49999998380584021
10
1.16499997661515
20
0.41999998477265571
0
LINE
5
125
100
AcDbEntity
8
0
100
AcDbLine
10
0.8649999895463073
20
1.2199999980663689
30
0
11
0.8649999895463073
21
1.0450000001812778
31
0
0
LWPOLYLINE
5
126
100
AcDbEntity
8
0
100
AcDbPolyline
90
4
70
1
43
0.0
10
1.2249999851956377
20
0.87499998942545543
10
1.0599999871896946
20
0.87499998942545543
10
1.1649999859207492
20
0.95499998845863987
10
1.299999984289248
20
0.94999998851906586
0
LINE
5
127
100
AcDbEntity
8
0
100
AcDbLine
10
1.0449999873709725
20
0.51499999377612515
30
0
11
1.2149999853164895
21
0.51499999377612515
31
0
0
LWPOLYLINE
5
128
100
AcDbEntity
8
0
100
AcDbPolyline
90
4
70
1
43
0.0
10
0.5049999874313984
20
1.2199999852560635
10
0.42999998833778791
20
1.304999984228822
10
0.41499998851906583
20
1.1499999861020271
10
0.5049999874313984
20
1.0549999872501206
0
LINE
5
129
100
AcDbEntity
8
0
100
AcDbLine
10
0.11999999208419801
20
1.309999984168396
30
0
11
0.069999992688457705
21
1.2549999848330817
31
0
0
LINE
5
130
100
AcDbEntity
8
0
100
AcDbLine
10
1.0863878875084796
20
0.67075958852721729
30
0
11
0.92922750992578984
21
0.67075958852721729
31
0
0
LINE
5
131
100
AcDbEntity
8
0
100
AcDbLine
10
0.95999998839821399
20
1.309999984168396
30
0
11
1.2599999847726557
21
1.309999984168396
31
0
0
SPLINE
5
132
100
AcDbEntity
8
0
100
AcDbSpline
70
6
71
5
72
51
73
45
74
0
42
0.000000001
43
0.0000000001
44
0.0000000001
40
0
40
0
40
0
40
0
40
0
40
0
40
0.025000000000000001
40
0.050000000000000003
40
0.075000000000000011
40
0.10000000000000001
40
0.125
40
0.14999999999999999
40
0.17499999999999999
40
0.19999999999999998
40
0.22499999999999998
40
0.24999999999999997
40
0.27499999999999997
40
0.29999999999999999
40
0.32500000000000001
40
0.35000000000000003
40
0.37500000000000006
40
0.40000000000000008
40
0.4250000000000001
40
0.45000000000000012
40
0.47500000000000014
40
0.50000000000000011
40
0.52500000000000013
40
0.55000000000000016
40
0.57500000000000018
40
0.6000000000000002
40
0.62500000000000022
40
0.65000000000000024
40
0.67500000000000027
40
0.70000000000000029
40
0.72500000000000031
40
0.75000000000000033
40
0.77500000000000036
40
0.80000000000000038
40
0.8250000000000004
40
0.85000000000000042
40
0.87500000000000044
40
0.90000000000000047
40
0.92500000000000049
40
0.95000000000000051
40
0.97500000000000053
40
1
40
1
40
1
40
1
40
1
40
1
41
1
41
1
41
1
41
1
41
1
41
1
41
1
41
1
41
1
41
1
41
1
41
1
41
1
41
1
41
1
41
1
41
1
41
1
41
1
41
1
41
1
41
1
41
1
41
1
41
1
41
1
41
1
41
1
41
1
41
1
41
1
41
1
41
1
41
1
41
1
41
1
41
1
41
1
41
1
41
1
41
1
41
1
41
1
41
1
41
1
10
0.68999999166121628
20
0.7499999909361047
30
0
10
0.69042376544791006
20
0.74999998977073723
30
0
10
0.69126987826309372
20
0.75150589584994443
30
0
10
0.69347775062568418
20
0.75828309581466202
30
0
10
0.70207590284375765
20
0.77396297112419765
30
0
10
0.72269464674416262
20
0.79343309851920996
30
0
10
0.75035774498283592
20
0.80246122625043104
30
0
10
0.77850689960695074
20
0.79906042735139915
30
0
10
0.80047780917930134
20
0.79452722835954337
30
0
10
0.81808781522294827
20
0.78712384456137185
30
0
10
0.83398295141321721
20
0.77302284574672797
30
0
10
0.85025115802553897
20
0.74779417845762919
30
0
10
0.85966415412784725
20
0.71281620077532026
30
0
10
0.8518638509237787
20
0.67686649581308045
30
0
10
0.83393106019248642
20
0.64699419385592816
30
0
10
0.81517591663652778
20
0.62833391103447889
30
0
10
0.80337263143298643
20
0.62111683424135344
30
0
10
0.79630631207557734
20
0.61885576891764926
30
0
10
0.77411178209275933
20
0.60535677257396692
30
0
10
0.74093894921430148
20
0.58030828794760969
30
0
10
0.70883105351373288
20
0.55005633719146163
30
0
10
0.68962734754671573
20
0.52513202034795392
30
0
10
0.68995025925424713
20
0.51514948580085218
30
0
10
0.69051837597712096
20
0.52488486930017708
30
0
10
0.67158679060739201
20
0.54968413565144203
30
0
10
0.63961619732980846
20
0.57995374193052285
30
0
10
0.60634895107141973
20
0.60512037790919482
30
0
10
0.58387291234365202
20
0.6187803501902116
30
0
10
0.5766658772984794
20
0.62107742175555369
30
0
10
0.56517555586226398
20
0.62820747152993517
30
0
10
0.54680275007110646
20
0.64682024859853782
30
0
10
0.52909515956433251
20
0.67665124528613529
30
0
10
0.52116422339606294
20
0.71256219567826407
30
0
10
0.53009373016844008
20
0.74748630753244205
30
0
10
0.54603214529435284
20
0.77275189521382437
30
0
10
0.56182660507485827
20
0.78695414111096174
30
0
10
0.57948892296853038
20
0.79446976618801313
30
0
10
0.60152274064284517
20
0.79906955886744813
30
0
10
0.62963174172810077
20
0.80246136888419595
30
0
10
0.65725737750119562
20
0.7934192263527452
30
0
10
0.67788363686943554
20
0.7739527341635376
30
0
10
0.68650645035642976
20
0.75828187856682716
30
0
10
0.68872723554292403
20
0.75150590284214136
30
0
10
0.68957621787452239
20
0.74999999210147206
30
0
10
0.68999999166121628
20
0.7499999909361047
30
0
0
LINE
5
133
100
AcDbEntity
8
0
100
AcDbLine
10
0.40499998863991776
20
1.1499999861020271
30
0
11
0.41999998845863989
21
1.309999984168396
31
0
0
LINE
5
134
100
AcDbEntity
8
0
100
AcDbLine
10
1.2149999853164895
20
0.54499999341356942
30
0
11
1.1099999865854349
21
0.54999999335314342
31
0
0
LINE
5
135
100
AcDbEntity
8
0
100
AcDbLine
10
0.51499999377612515
20
1.2199999980663689
30
0
11
0.51499999377612515
21
1.0449999873709725
31
0
0
LINE
5
136
100
AcDbEntity
8
0
100
AcDbLine
10
0.16499999800594303
20
0.8649999895463073
30
0
11
0.16499999800594303
21
0.83499998990886315
31
0
0
LINE
5
137
100
AcDbEntity
8
0
100
AcDbLine
10
0.70559680913752532
20
1.0717510248732645
30
0
11
0.70559680913752532
21
0.92949265938279058
31
0
0
SPLINE
5
138
100
AcDbEntity
8
0
100
AcDbSpline
70
4
71
5
72
16
73
10
74
0
42
0.000000001
43
0.0000000001
44
0.0000000001
40
0
40
0
40
0
40
0
40
0
40
0
40
0.20000000000000001
40
0.40000000000000002
40
0.60000000000000009
40
0.80000000000000004
40
1
40
1
40
1
40
1
40
1
40
1
41
1
41
1
41
1
41
1
41
1
41
1
41
1
41
1
41
1
41
1
10
0.79499999039227087
20
1.0600000000000001
30
0
10
0.78896670626947007
20
1.0620110947076002
30
0
10
0.77596293163830665
20
1.0655693569636839
30
0
10
0.75364841437458596
20
1.0695161038217376
30
0
10
0.71925596547529258
20
1.0722794837652236
30
0
10
0.67255456167000394
20
1.0722442403983765
30
0
10
0.63548505705071845
20
1.0694489113584142
30
0
10
0.60937619554993661
20
1.0655169819381396
30
0
10
0.59296021803096943
20
1.0619900562752009
30
0
10
0.58499999293016158
20
1.0600000000000001
30
0
0
LINE
5
139
100
AcDbEntity
8
0
100
AcDbLine
10
0.49999998749182439
20
1.0449999873709725
30
0
11
0.40999998857949183
21
1.1449999861624531
31
0
0
SPLINE
5
140
100
AcDbEntity
8
0
100
AcDbSpline
70
4
71
5
72
16
73
10
74
0
42
0.000000001
43
0.0000000001
44
0.0000000001
40
0
40
0
40
0
40
0
40
0
40
0
40
0.20000000000000001
40
0.40000000000000002
40
0.60000000000000009
40
0.80000000000000004
40
1
40
1
40
1
40
1
40
1
40
1
41
1
41
1
41
1
41
1
41
1
41
1
41
1
41
1
41
1
41
1
10
0.8649999895463073
20
1.0450000001812778
30
0
10
0.87495027068458708
20
1.0390298314983102
30
0
10
0.89428056483487406
20
1.0267533885053766
30
0
10
0.92156651951537738
20
1.0073312924775595
30
0
10
0.95480902582189553
20
0.97967944411738705
30
0
10
0.99152521821371309
20
0.94303373845756344
30
0
10
1.0165319600135774
20
0.91250023690275817
30
0
10
1.032144894457603
20
0.88899380893122693
30
0
10
1.0409777980518686
20
0.87304438099482051
30
0
10
1.0449999873709725
20
0.86500000235661278
30
0
0
SPLINE
5
141
100
AcDbEntity
8
0
100
AcDbSpline
70
4
71
5
72
16
73
10
74
0
42
0.000000001
43
0.0000000001
44
0.0000000001
40
0
40
0
40
0
40
0
40
0
40
0
40
0.20000000000000001
40
0.40000000000000002
40
0.60000000000000009
40
0.80000000000000004
40
1
40
1
40
1
40
1
40
1
40
1
41
1
41
1
41
1
41
1
41
1
41
1
41
1
41
1
41
1
41
1
10
1.1599999859811752
20
0.964999988337788
30
0
10
1.1559777966554874
20
0.97304436698916341
30
0
10
1.1467747315076069
20
0.98936987448947644
30
0
10
1.1294973658019571
20
1.0145673431263755
30
0
10
1.1006158312582506
20
1.0490368147496636
30
0
10
1.0590368146288258
20
1.090615831379083
30
0
10
1.024567343005526
20
1.1194973659227934
30
0
10
0.99936987436862557
20
1.1367747316284578
30
0
10
0.98304436686831131
20
1.1459777967763396
30
0
10
0.97499998821693601
20
1.1499999861020271
30
0
0
LINE
5
142
100
AcDbEntity
8
0
100
AcDbLine
10
1.0857682884012401
20
0.71999373667971212
30
0
11
0.92811839470380153
21
0.71999373667971212
31
0
0
LINE
5
143
100
AcDbEntity
8
0
100
AcDbLine
10
1.2149999853164895
20
0.51499999377612515
30
0
11
1.2149999853164895
21
0.54499999341356942
31
0
0
LINE
5
144
100
AcDbEntity
8
0
100
AcDbLine
10
0.51499999377612515
20
1.2199999980663689
30
0
11
0.53499999353442129
21
1.2199999980663689
31
0
0
LINE
5
145
100
AcDbEntity
8
0
100
AcDbLine
10
0.83999998984843716
20
1.1099999993957403
30
0
11
0.79499999039227087
21
1.0600000000000001
31
0
0
LINE
5
146
100
AcDbEntity
8
0
100
AcDbLine
10
0.53499999353442129
20
1.2199999980663689
30
0
11
0.53499999353442129
21
1.1099999993957403
31
0
0
LINE
5
147
100
AcDbEntity
8
0
100
AcDbLine
10
1.0858063318049753
20
0.65983141993583638
30
0
11
0.92809630807084975
21
0.65983141993583638
31
0
0
LINE
5
148
100
AcDbEntity
8
0
100
AcDbLine
10
0.717503260976879
20
1.071433349690857
30
0
11
0.717503260976879
21
0.92841888517583637
31
0
0
CIRCLE
5
149
100
AcDbEntity
8
0
100
AcDbCircle
10
0.68999999166121628
20
0.68999999166121628
30
0
40
0.2399999970995535
210
0
220
0
230
1
0
LINE
5
150
100
AcDbEntity
8
0
100
AcDbLine
10
1.0863878875084796
20
0.70841110864444212
30
0
11
0.92929276083574786
21
0.70841110864444212
31
0
0
LINE
5
151
100
AcDbEntity
8
0
100
AcDbLine
10
0.87999998936502943
20
1.0449999873709725
30
0
11
0.969999988277362
21
1.1449999861624531
31
0
0
LINE
5
152
100
AcDbEntity
8
0
100
AcDbLine
10
0.22499999081525265
20
0.95999998839821399
30
0
11
0.32999998954630733
21
0.87999998936502943
31
0
0
LWPOLYLINE
5
153
100
AcDbEntity
8
0
100
AcDbPolyline
90
4
70
1
43
0.0
10
0.87499998942545543
20
1.2199999852560635
10
0.94999998851906586
20
1.304999984228822
10
0.964999988337788
20
1.1499999861020271
10
0.87499998942545543
20
1.0549999872501206
0
SPLINE
5
154
100
AcDbEntity
8
0
100
AcDbSpline
70
4
71
5
72
16
73
10
74
0
42
0.000000001
43
0.0000000001
44
0.0000000001
40
0
40
0
40
0
40
0
40
0
40
0
40
0.20000000000000001
40
0.40000000000000002
40
0.60000000000000009
40
0.80000000000000004
40
1
40
1
40
1
40
1
40
1
40
1
41
1
41
1
41
1
41
1
41
1
41
1
41
1
41
1
41
1
41
1
10
1.0499999873105466
20
0.87999998936502943
30
0
10
1.0460343959645082
20
0.8859483942323807
30
0
10
1.0372273541963932
20
0.89845003835315274
30
0
10
1.0213916243143806
20
0.91901498077975974
30
0
10
0.99579129932818145
20
0.94921826536845144
30
0
10
0.95909740245623609
20
0.98764329837068976
30
0
10
0.92785563496619528
20
1.0151579574556715
30
0
10
0.90402396585388156
20
1.0319121571287933
30
0
10
0.88802628316660137
20
1.0409868513958438
30
0
10
0.87999998936502943
20
1.0449999873709725
30
0
0
CIRCLE
5
155
100
AcDbEntity
8
0
100
AcDbCircle
10
0.68999999166121628
20
0.68999999166121628
30
0
40
0.22999999722040543
210
0
220
0
230
1
0
LINE
5
156
100
AcDbEntity
8
0
100
AcDbLine
10
1.309999984168396
20
0.95999998839821399
30
0
11
1.1599999859811752
21
0.964999988337788
31
0
0
LINE
5
157
100
AcDbEntity
8
0
100
AcDbLine
10
0.8649999895463073
20
1.2199999980663689
30
0
11
0.83999998984843716
21
1.2199999980663689
31
0
0
LINE
5
158
100
AcDbEntity
8
0
100
AcDbLine
10
1.2149999853164895
20
0.86500000235661278
30
0
11
1.2149999853164895
21
0.83500000271916852
31
0
0
LINE
5
159
100
AcDbEntity
8
0
100
AcDbLine
10
1.2149999853164895
20
0.83500000271916852
30
0
11
1.1099999865854349
21
0.82999998996928914
31
0
0
LINE
5
160
100
AcDbEntity
8
0
100
AcDbLine
10
1.0449999873709725
20
0.86500000235661278
30
0
11
1.2149999853164895
21
0.86500000235661278
31
0
0
LINE
5
161
100
AcDbEntity
8
0
100
AcDbLine
10
1.154999976736002
20
0.4149999848330817
30
0
11
1.0499999780049474
21
0.4949999838662662
31
0
0
LINE
5
162
100
AcDbEntity
8
0
100
AcDbLine
10
1.1099999865854349
20
0.82999998996928914
30
0
11
1.0749999870084166
21
0.78999999045269687
31
0
0
SPLINE
5
163
100
AcDbEntity
8
0
100
AcDbSpline
70
4
71
5
72
16
73
10
74
0
42
0.000000001
43
0.0000000001
44
0.0000000001
40
0
40
0
40
0
40
0
40
0
40
0
40
0.20000000000000001
40
0.40000000000000002
40
0.60000000000000009
40
0.80000000000000004
40
1
40
1
40
1
40
1
40
1
40
1
41
1
41
1
41
1
41
1
41
1
41
1
41
1
41
1
41
1
41
1
10
1.0749999870084166
20
0.78999999045269687
30
0
10
1.0769900432797148
20
0.78203976536750408
30
0
10
1.0805142726068342
20
0.7660773500705127
30
0
10
1.0844340783820292
20
0.74200798097265863
30
0
10
1.087201534114357
20
0.70972982469375812
30
0
10
1.0872046626692533
20
0.66939648845230915
30
0
10
1.0844400430593251
20
0.63746091594688936
30
0
10
1.0805189219396727
20
0.61387711043178306
30
0
10
1.0769919108620905
20
0.59835135595304478
30
0
10
1.0749999870084166
20
0.59063772219077415
30
0
0
LINE
5
164
100
AcDbEntity
8
0
100
AcDbLine
10
1.3099999748627968
20
0.4149999848330817
30
0
11
1.159999976675576
21
0.40999998489350764
31
0
0
LINE
5
165
100
AcDbEntity
8
0
100
AcDbLine
10
0.97499998821693601
20
1.1499999861020271
30
0
11
0.95999998839821399
21
1.309999984168396
31
0
0
LINE
5
166
100
AcDbEntity
8
0
100
AcDbLine
10
0.49999997897176274
20
0.32999998586032314
30
0
11
0.40999998005943017
21
0.22999998706884253
31
0
0
SPLINE
5
167
100
AcDbEntity
8
0
100
AcDbSpline
70
4
71
5
72
16
73
10
74
0
42
0.000000001
43
0.0000000001
44
0.0000000001
40
0
40
0
40
0
40
0
40
0
40
0
40
0.20000000000000001
40
0.40000000000000002
40
0.60000000000000009
40
0.80000000000000004
40
1
40
1
40
1
40
1
40
1
40
1
41
1
41
1
41
1
41
1
41
1
41
1
41
1
41
1
41
1
41
1
10
0.40999998005943017
20
0.22999998706884253
30
0
10
0.40195560140804709
20
0.23402217639453396
30
0
10
0.38563009390772096
20
0.2432252415424204
30
0
10
0.36043262527081676
20
0.26050260724808622
30
0
10
0.32596315364753103
20
0.28938414179178518
30
0
10
0.28438413701812854
20
0.33096315842118618
30
0
10
0.25550260247443007
20
0.3654326300444683
30
0
10
0.23822523676876814
20
0.39063009868137311
30
0
10
0.22902217162088231
20
0.40695560618169868
30
0
10
0.22499998229519103
20
0.4149999848330817
30
0
0
LINE
5
168
100
AcDbEntity
8
0
100
AcDbLine
10
0.51499999377612515
20
0.159999998066369
30
0
11
0.51499999377612515
21
0.33499999595146007
31
0
0
SPLINE
5
169
100
AcDbEntity
8
0
100
AcDbSpline
70
4
71
5
72
16
73
10
74
0
42
0.000000001
43
0.0000000001
44
0.0000000001
40
0
40
0
40
0
40
0
40
0
40
0
40
0.20000000000000001
40
0.40000000000000002
40
0.60000000000000009
40
0.80000000000000004
40
1
40
1
40
1
40
1
40
1
40
1
41
1
41
1
41
1
41
1
41
1
41
1
41
1
41
1
41
1
41
1
10
1.159999976675576
20
0.40999998489350764
30
0
10
1.1559777873498882
20
0.40195560624213234
30
0
10
1.1467747222020079
20
0.38563009874181797
30
0
10
1.1294973564963591
20
0.36043263010492005
30
0
10
1.1006158219526518
20
0.32596315848162749
30
0
10
1.0590368053232253
20
0.28438414185220645
30
0
10
1.0245673336999255
20
0.25550260730849778
30
0
10
0.99936986506302583
20
0.23822524160283701
30
0
10
0.98304435756271213
20
0.22902217645495618
30
0
10
0.97499997891133683
20
0.22499998712926852
30
0
0
SPLINE
5
170
100
AcDbEntity
8
0
100
AcDbSpline
70
4
71
5
72
16
73
10
74
0
42
0.000000001
43
0.0000000001
44
0.0000000001
40
0
40
0
40
0
40
0
40
0
40
0
40
0.20000000000000001
40
0.40000000000000002
40
0.60000000000000009
40
0.80000000000000004
40
1
40
1
40
1
40
1
40
1
40
1
41
1
41
1
41
1
41
1
41
1
41
1
41
1
41
1
41
1
41
1
10
1.0499999780049474
20
0.4949999838662662
30
0
10
1.0460343866589092
20
0.48905157899891494
30
0
10
1.0372273448907956
20
0.47654993487814218
30
0
10
1.0213916150087907
20
0.45598499245154001
30
0
10
0.99579129002259437
20
0.42578170786284686
30
0
10
0.9590973931506469
20
0.38735667486060721
30
0
10
0.92785562566059943
20
0.35984201577562303
30
0
10
0.90402395654828294
20
0.34308781610250194
30
0
10
0.88802627386100219
20
0.33401312183545168
30
0
10
0.87999998005943025
20
0.32999998586032314
30
0
0
LINE
5
171
100
AcDbEntity
8
0
100
AcDbLine
10
0.7180545393208847
20
0.45164533791307343
30
0
11
0.7180545393208847
21
0.30858761336207441
31
0
0
SPLINE
5
172
100
AcDbEntity
8
0
100
AcDbSpline
70
4
71
5
72
16
73
10
74
0
42
0.000000001
43
0.0000000001
44
0.0000000001
40
0
40
0
40
0
40
0
40
0
40
0
40
0.20000000000000001
40
0.40000000000000002
40
0.60000000000000009
40
0.80000000000000004
40
1
40
1
40
1
40
1
40
1
40
1
41
1
41
1
41
1
41
1
41
1
41
1
41
1
41
1
41
1
41
1
10
0.8649999895463073
20
0.33499999595146007
30
0
10
0.87495027068458708
20
0.34097016463442781
30
0
10
0.89428056483487406
20
0.35324660762736276
30
0
10
0.92156651951537738
20
0.37266870365519733
30
0
10
0.95480902582189553
20
0.4003205520153742
30
0
10
0.99152521821371309
20
0.43696625767519232
30
0
10
1.0165319600135774
20
0.46749975922998455
30
0
10
1.032144894457603
20
0.49100618720151162
30
0
10
1.0409777980518686
20
0.50695561513791743
30
0
10
1.0449999873709725
20
0.51499999377612515
30
0
0
LWPOLYLINE
5
173
100
AcDbEntity
8
0
100
AcDbPolyline
90
4
70
1
43
0.0
10
0.079999984047544118
20
0.42499998471222977
10
0.21499998241604296
20
0.41999998477265571
10
0.3199999811470976
20
0.49999998380584021
10
0.1549999831411546
20
0.49999998380584021
0
LINE
5
174
100
AcDbEntity
8
0
100
AcDbLine
10
0.8649999895463073
20
0.159999998066369
30
0
11
0.8649999895463073
21
0.33499999595146007
31
0
0
SPLINE
5
175
100
AcDbEntity
8
0
100
AcDbSpline
70
4
71
5
72
16
73
10
74
0
42
0.000000001
43
0.0000000001
44
0.0000000001
40
0
40
0
40
0
40
0
40
0
40
0
40
0.20000000000000001
40
0.40000000000000002
40
0.60000000000000009
40
0.80000000000000004
40
1
40
1
40
1
40
1
40
1
40
1
41
1
41
1
41
1
41
1
41
1
41
1
41
1
41
1
41
1
41
1
10
0.79499999039227087
20
0.319999996132738
30
0
10
0.78896670626947007
20
0.31798890142513769
30
0
10
0.77596293163830665
20
0.314430639169055
30
0
10
0.75364841437458596
20
0.31048389231101248
30
0
10
0.71925596547529258
20
0.3077205123675279
30
0
10
0.67255456167000394
20
0.3077557557343697
30
0
10
0.63548505705071845
20
0.31055108477432469
30
0
10
0.60937619554993661
20
0.31448301419459801
30
0
10
0.59296021803096943
20
0.31800993985753712
30
0
10
0.58499999293016158
20
0.319999996132738
30
0
0
LWPOLYLINE
5
176
100
AcDbEntity
8
0
100
AcDbPolyline
90
4
70
1
43
0.0
10
0.07999999256760576
20
0.94999998851906586
10
0.21499999093610461
20
0.95499998845863987
10
0.31999998966715926
20
0.87499998942545543
10
0.15499999166121622
20
0.87499998942545543
0
LINE
5
177
100
AcDbEntity
8
0
100
AcDbLine
10
0.11999998356413637
20
0.064999989062899527
30
0
11
0.069999984168396062
21
0.11999998839821387
31
0
0
LINE
5
178
100
AcDbEntity
8
0
100
AcDbLine
10
0.67432963669691637
20
0.3085628681825287
30
0
11
0.67432963669691637
21
0.45051212436293636
31
0
0
LINE
5
179
100
AcDbEntity
8
0
100
AcDbLine
10
0.16499999800594303
20
0.51499999377612515
30
0
11
0.33499999595146007
21
0.51499999377612515
31
0
0
SPLINE
5
180
100
AcDbEntity
8
0
100
AcDbSpline
70
4
71
5
72
16
73
10
74
0
42
0.000000001
43
0.0000000001
44
0.0000000001
40
0
40
0
40
0
40
0
40
0
40
0
40
0.20000000000000001
40
0.40000000000000002
40
0.60000000000000009
40
0.80000000000000004
40
1
40
1
40
1
40
1
40
1
40
1
41
1
41
1
41
1
41
1
41
1
41
1
41
1
41
1
41
1
41
1
10
0.30499999631401586
20
0.78999999045269687
30
0
10
0.303009940042472
20
0.78203976536652131
30
0
10
0.29948597338539662
20
0.76609900986281176
30
0
10
0.29556734866802969
20
0.74212702368860239
30
0
10
0.29280260829164056
20
0.71006662178651325
30
0
10
0.29280260829164012
20
0.66993336153593641
30
0
10
0.29556734866802825
20
0.63787295963384005
30
0
10
0.29948597338539668
20
0.61390097345962136
30
0
10
0.303009940042472
20
0.59796021795591114
30
0
10
0.30499999631401586
20
0.5899999928697357
30
0
0
LINE
5
181
100
AcDbEntity
8
0
100
AcDbLine
10
0.87999998005943025
20
0.32999998586032314
30
0
11
0.96999997897176282
21
0.22999998706884253
31
0
0
LINE
5
182
100
AcDbEntity
8
0
100
AcDbLine
10
1.3099999748627968
20
0.11999998839821387
30
0
11
1.3099999748627968
21
0.4149999848330817
31
0
0
LINE
5
183
100
AcDbEntity
8
0
100
AcDbLine
10
0.83999998984843716
20
0.159999998066369
30
0
11
0.83999998984843716
21
0.26999999673699765
31
0
0
LINE
5
184
100
AcDbEntity
8
0
100
AcDbLine
10
0.8649999895463073
20
0.159999998066369
30
0
11
0.83999998984843716
21
0.159999998066369
31
0
0
LINE
5
185
100
AcDbEntity
8
0
100
AcDbLine
10
0.26999999673699765
20
0.82999998996928914
30
0
11
0.30499999631401586
21
0.78999999045269687
31
0
0
LINE
5
186
100
AcDbEntity
8
0
100
AcDbLine
10
0.22499998229519103
20
0.4149999848330817
30
0
11
0.32999998102624567
21
0.4949999838662662
31
0
0
LINE
5
187
100
AcDbEntity
8
0
100
AcDbLine
10
0.66407620349054108
20
0.30901956333374836
30
0
11
0.66407620349054108
21
0.45140419158362133
31
0
0
LWPOLYLINE
5
188
100
AcDbEntity
8
0
100
AcDbPolyline
90
4
70
1
43
0.0
10
0.87499998011985625
20
0.31999998598117513
10
0.87499998011985625
20
0.15499998797523207
10
0.94999997921346668
20
0.069999989002473548
10
0.96499997903218881
20
0.22499998712926852
0
SPLINE
5
189
100
AcDbEntity
8
0
100
AcDbSpline
70
4
71
5
72
16
73
10
74
0
42
0.000000001
43
0.0000000001
44
0.0000000001
40
0
40
0
40
0
40
0
40
0
40
0
40
0.20000000000000001
40
0.40000000000000002
40
0.60000000000000009
40
0.80000000000000004
40
1
40
1
40
1
40
1
40
1
40
1
41
1
41
1
41
1
41
1
41
1
41
1
41
1
41
1
41
1
41
1
10
0.96999997897176282
20
0.22999998706884253
30
0
10
0.9780443576231459
20
0.23402217639453396
30
0
10
0.99436986512347159
20
0.2432252415424204
30
0
10
1.0195673337603819
20
0.26050260724808622
30
0
10
1.0540368053836671
20
0.28938414179178518
30
0
10
1.0956158220130678
20
0.33096315842118618
30
0
10
1.1244973565567629
20
0.3654326300444683
30
0
10
1.1417747222624248
20
0.39063009868137311
30
0
10
1.1509777874103106
20
0.40695560618169868
30
0
10
1.154999976736002
20
0.4149999848330817
30
0
0
LINE
5
190
100
AcDbEntity
8
0
100
AcDbLine
10
1.2599999754670566
20
0.064999989062899527
30
0
11
1.3099999748627968
21
0.11999998839821387
31
0
0
LINE
5
191
100
AcDbEntity
8
0
100
AcDbLine
10
0.97499997891133683
20
0.22499998712926852
30
0
11
0.95999997909261481
21
0.064999989062899527
31
0
0
LINE
5
192
100
AcDbEntity
8
0
100
AcDbLine
10
0.66051539668247905
20
0.92818197516694989
30
0
11
0.66051539668247905
21
1.0707796083281054
31
0
0
LINE
5
193
100
AcDbEntity
8
0
100
AcDbLine
10
0.16499999800594303
20
0.54499999341356942
30
0
11
0.26999999673699765
21
0.54999999335314342
31
0
0
LINE
5
194
100
AcDbEntity
8
0
100
AcDbLine
10
0.069999984168396062
20
0.4149999848330817
30
0
11
0.21999998235561699
21
0.40999998489350764
31
0
0
LINE
5
195
100
AcDbEntity
8
0
100
AcDbLine
10
0.16499999800594303
20
0.83499998990886315
30
0
11
0.26999999673699765
21
0.82999998996928914
31
0
0
LINE
5
196
100
AcDbEntity
8
0
100
AcDbLine
10
0.069999992688457705
20
1.2549999848330817
30
0
11
0.069999992688457705
21
0.95999998839821399
31
0
0
LINE
5
197
100
AcDbEntity
8
0
100
AcDbLine
10
0.16499999800594303
20
0.8649999895463073
30
0
11
0.33499999595146007
21
0.8649999895463073
31
0
0
LINE
5
198
100
AcDbEntity
8
0
100
AcDbLine
10
0.16499999800594303
20
0.54499999341356942
30
0
11
0.16499999800594303
21
0.51499999377612515
31
0
0
LINE
5
199
100
AcDbEntity
8
0
100
AcDbLine
10
0.95999997909261481
20
0.064999989062899527
30
0
11
1.2599999754670566
21
0.064999989062899527
31
0
0
LINE
5
200
100
AcDbEntity
8
0
100
AcDbLine
10
0.069999992688457705
20
0.95999998839821399
30
0
11
0.21999999087567865
21
0.964999988337788
31
0
0
LINE
5
201
100
AcDbEntity
8
0
100
AcDbLine
10
0.67422464367792434
20
1.071433349690857
30
0
11
0.67422464367792434
21
0.92948096586123841
31
0
0
LINE
5
202
100
AcDbEntity
8
0
100
AcDbLine
10
0.83999998984843716
20
0.26999999673699765
30
0
11
0.79499999039227087
21
0.319999996132738
31
0
0
SPLINE
5
203
100
AcDbEntity
8
0
100
AcDbSpline
70
4
71
5
72
16
73
10
74
0
42
0.000000001
43
0.0000000001
44
0.0000000001
40
0
40
0
40
0
40
0
40
0
40
0
40
0.20000000000000001
40
0.40000000000000002
40
0.60000000000000009
40
0.80000000000000004
40
1
40
1
40
1
40
1
40
1
40
1
41
1
41
1
41
1
41
1
41
1
41
1
41
1
41
1
41
1
41
1
10
0.969999988277362
20
1.1449999861624531
30
0
10
0.97804436692874508
20
1.1409777968367616
30
0
10
0.99436987442906999
20
1.1317747316888755
30
0
10
1.0195673430659784
20
1.1144973659832194
30
0
10
1.0540368146892596
20
1.0856158314395217
30
0
10
1.0956158313186604
20
1.0440368148101167
30
0
10
1.1244973658623576
20
1.0095673431868277
30
0
10
1.1417747315680231
20
0.98436987454992253
30
0
10
1.1509777967159098
20
0.96804436704959707
30
0
10
1.1549999860416011
20
0.95999998839821399
30
0
0
LINE
5
204
100
AcDbEntity
8
0
100
AcDbLine
10
0.26999999673699765
20
0.54999999335314342
30
0
11
0.30499999631401586
21
0.5899999928697357
31
0
0
LINE
5
205
100
AcDbEntity
8
0
100
AcDbLine
10
0.53499999353442129
20
1.1099999993957403
30
0
11
0.58499999293016158
21
1.0600000000000001
31
0
0
LINE
5
206
100
AcDbEntity
8
0
100
AcDbLine
10
0.069999984168396062
20
0.11999998839821387
30
0
11
0.069999984168396062
21
0.4149999848330817
31
0
0
LINE
5
207
100
AcDbEntity
8
0
100
AcDbLine
10
1.309999984168396
20
1.2549999848330817
30
0
11
1.309999984168396
21
0.95999998839821399
31
0
0
ENDSEC
0
SECTION
2
OBJECTS
0
DICTIONARY
5
C
100
AcDbDictionary
3
ACAD_GROUP
350
D
3
ACAD_MLINESTYLE
350
17
0
DICTIONARY
5
D
100
AcDbDictionary
0
DICTIONARY
5
1A
330
C
100
AcDbDictionary
0
DICTIONARY
5
17
100
AcDbDictionary
0
ENDSEC
0
EOF
